# 3ds Max Wavefront OBJ Exporter v0.97b - (c)2007 guruware
# File Created: 09.04.2018 16:53:31

mtllib Baffle Seule Enceinte Concert.mtl

#
# object Cylinder001
#

v  258.8951 34.1999 -417.3379
v  258.8951 40.0527 -410.3629
v  258.8951 37.3141 -408.7817
v  258.8951 34.1999 -408.2326
v  258.8951 43.1668 -415.7568
v  258.8951 42.0853 -412.7853
v  258.8951 42.0853 -421.8905
v  258.8951 43.1668 -418.9190
v  258.8951 37.3141 -425.8940
v  258.8951 40.0527 -424.3129
v  258.8951 31.0857 -425.8940
v  258.8951 34.1999 -426.4431
v  258.8951 26.3145 -421.8905
v  258.8951 28.3472 -424.3129
v  258.8951 25.2330 -415.7568
v  258.8951 25.2330 -418.9190
v  258.8951 28.3472 -410.3629
v  258.8951 26.3145 -412.7852
v  258.8951 31.0857 -408.7817
v  258.1092 37.3141 -408.7817
v  258.1092 34.1999 -408.2326
v  258.1092 40.0527 -410.3629
v  258.1092 42.0853 -412.7853
v  258.1092 43.1668 -415.7568
v  258.1092 43.1668 -418.9190
v  258.1092 42.0853 -421.8905
v  258.1092 40.0527 -424.3129
v  258.1092 37.3141 -425.8940
v  258.1092 34.1999 -426.4431
v  258.1092 31.0857 -425.8940
v  258.1092 28.3472 -424.3129
v  258.1092 26.3145 -421.8905
v  258.1092 25.2330 -418.9190
v  258.1092 25.2330 -415.7568
v  258.1092 26.3145 -412.7852
v  258.1092 28.3472 -410.3629
v  258.1092 31.0857 -408.7817
v  257.3234 37.3141 -408.7817
v  257.3234 34.1999 -408.2326
v  257.3234 40.0527 -410.3629
v  257.3234 42.0853 -412.7853
v  257.3234 43.1668 -415.7568
v  257.3234 43.1668 -418.9190
v  257.3234 42.0853 -421.8905
v  257.3234 40.0527 -424.3129
v  257.3234 37.3141 -425.8940
v  257.3234 34.1999 -426.4431
v  257.3234 31.0857 -425.8940
v  257.3234 28.3472 -424.3129
v  257.3234 26.3145 -421.8905
v  257.3234 25.2330 -418.9190
v  257.3234 25.2330 -415.7568
v  257.3234 26.3145 -412.7853
v  257.3234 28.3471 -410.3629
v  257.3234 31.0857 -408.7817
v  256.5375 37.3141 -408.7817
v  256.5375 34.1999 -408.2326
v  256.5375 40.0527 -410.3629
v  256.5375 42.0853 -412.7853
v  256.5375 43.1668 -415.7568
v  256.5375 43.1668 -418.9190
v  256.5375 42.0853 -421.8905
v  256.5375 40.0527 -424.3129
v  256.5375 37.3141 -425.8940
v  256.5375 34.1999 -426.4431
v  256.5375 31.0857 -425.8940
v  256.5375 28.3472 -424.3129
v  256.5375 26.3145 -421.8905
v  256.5375 25.2330 -418.9190
v  256.5375 25.2330 -415.7568
v  256.5375 26.3145 -412.7853
v  256.5375 28.3471 -410.3629
v  256.5375 31.0857 -408.7817
v  255.7516 37.3141 -408.7817
v  255.7516 34.1999 -408.2326
v  255.7516 40.0527 -410.3629
v  255.7516 42.0853 -412.7853
v  255.7516 43.1668 -415.7568
v  255.7516 43.1668 -418.9190
v  255.7516 42.0853 -421.8905
v  255.7516 40.0527 -424.3129
v  255.7516 37.3141 -425.8940
v  255.7516 34.1999 -426.4431
v  255.7516 31.0857 -425.8940
v  255.7516 28.3472 -424.3129
v  255.7516 26.3145 -421.8905
v  255.7516 25.2330 -418.9190
v  255.7516 25.2330 -415.7568
v  255.7516 26.3145 -412.7853
v  255.7516 28.3471 -410.3629
v  255.7516 31.0857 -408.7817
v  254.9657 37.3141 -408.7817
v  254.9657 34.1999 -408.2326
v  254.9657 40.0527 -410.3629
v  254.9657 42.0853 -412.7853
v  254.9657 43.1668 -415.7568
v  254.9657 43.1668 -418.9190
v  254.9657 42.0853 -421.8905
v  254.9657 40.0527 -424.3129
v  254.9657 37.3141 -425.8940
v  254.9657 34.1999 -426.4431
v  254.9657 31.0857 -425.8940
v  254.9657 28.3472 -424.3129
v  254.9657 26.3145 -421.8905
v  254.9657 25.2330 -418.9190
v  254.9657 25.2330 -415.7568
v  254.9657 26.3145 -412.7853
v  254.9657 28.3471 -410.3629
v  254.9657 31.0857 -408.7817
v  254.9657 34.1999 -417.3379
# 110 vertices

vn 1.0000 0.0000 0.0000
vn 0.6700 0.4772 0.5687
vn 0.6700 0.2539 0.6976
vn 0.6700 0.0000 0.7423
vn 0.6700 0.7311 0.1289
vn 0.6700 0.6429 0.3712
vn 0.6700 0.6429 -0.3712
vn 0.6700 0.7311 -0.1289
vn 0.6700 0.2539 -0.6976
vn 0.6700 0.4772 -0.5687
vn 0.6700 -0.2539 -0.6976
vn 0.6700 0.0000 -0.7423
vn 0.6700 -0.6429 -0.3712
vn 0.6700 -0.4772 -0.5687
vn 0.6700 -0.7311 0.1289
vn 0.6700 -0.7311 -0.1289
vn 0.6700 -0.4772 0.5687
vn 0.6700 -0.6429 0.3712
vn 0.6700 -0.2539 0.6976
vn 0.0000 0.3420 0.9397
vn 0.0000 -0.0000 1.0000
vn -0.0000 0.6428 0.7661
vn 0.0000 0.8660 0.5000
vn 0.0000 0.9848 0.1736
vn 0.0000 0.9848 -0.1736
vn 0.0000 0.8660 -0.5000
vn 0.0000 0.6428 -0.7660
vn 0.0000 0.3420 -0.9397
vn 0.0000 0.0000 -1.0000
vn 0.0000 -0.3420 -0.9397
vn 0.0000 -0.6428 -0.7660
vn 0.0000 -0.8660 -0.5000
vn 0.0000 -0.9848 -0.1736
vn 0.0000 -0.9848 0.1736
vn 0.0000 -0.8660 0.5000
vn 0.0000 -0.6428 0.7660
vn 0.0000 -0.3420 0.9397
vn -0.0000 0.3420 0.9397
vn -0.0000 -0.0000 1.0000
vn -0.0000 0.8660 0.5000
vn -0.0000 0.9848 0.1736
vn -0.0000 0.9848 -0.1736
vn -0.0000 0.8660 -0.5000
vn -0.0000 0.3420 -0.9397
vn -0.0000 0.0000 -1.0000
vn -0.0000 -0.3420 -0.9397
vn -0.0000 -0.6428 -0.7660
vn -0.0000 -0.8660 -0.5000
vn -0.0000 -0.9848 -0.1736
vn -0.0000 -0.9848 0.1736
vn -0.0000 -0.8660 0.5000
vn -0.0000 -0.6428 0.7660
vn -0.0000 -0.3420 0.9397
vn -0.0000 0.6428 0.7660
vn -0.0000 0.9848 0.1737
vn -0.6700 0.2539 0.6976
vn -0.6700 -0.0000 0.7423
vn -0.6700 0.4772 0.5687
vn -0.6700 0.6429 0.3712
vn -0.6700 0.7311 0.1289
vn -0.6700 0.7311 -0.1289
vn -0.6700 0.6429 -0.3712
vn -0.6700 0.4772 -0.5687
vn -0.6700 0.2539 -0.6976
vn -0.6700 -0.0000 -0.7423
vn -0.6700 -0.2539 -0.6976
vn -0.6700 -0.4772 -0.5687
vn -0.6700 -0.6429 -0.3712
vn -0.6700 -0.7311 -0.1289
vn -0.6700 -0.7311 0.1289
vn -0.6700 -0.6429 0.3712
vn -0.6700 -0.4772 0.5687
vn -0.6700 -0.2539 0.6976
vn -1.0000 -0.0000 -0.0000
# 74 vertex normals

vt 0.5000 0.0000 0.0000
vt 0.8611 0.0000 1.0000
vt 0.8056 0.0000 1.0000
vt 0.7500 0.0000 1.0000
vt 0.9722 0.0000 1.0000
vt 0.9167 0.0000 1.0000
vt 0.0833 0.0000 1.0000
vt 0.0278 0.0000 1.0000
vt -0.0278 0.0000 1.0000
vt 0.1944 0.0000 1.0000
vt 0.1389 0.0000 1.0000
vt 0.3056 0.0000 1.0000
vt 0.2500 0.0000 1.0000
vt 0.4167 0.0000 1.0000
vt 0.3611 0.0000 1.0000
vt 0.5278 0.0000 1.0000
vt 0.4722 0.0000 1.0000
vt 0.6389 0.0000 1.0000
vt 0.5833 0.0000 1.0000
vt 0.6944 0.0000 1.0000
vt 0.8056 0.2000 1.0000
vt 0.7500 0.2000 1.0000
vt 0.8611 0.2000 1.0000
vt 0.9167 0.2000 1.0000
vt 0.9722 0.2000 1.0000
vt 0.0278 0.2000 1.0000
vt -0.0278 0.2000 1.0000
vt 0.0833 0.2000 1.0000
vt 0.1389 0.2000 1.0000
vt 0.1944 0.2000 1.0000
vt 0.2500 0.2000 1.0000
vt 0.3056 0.2000 1.0000
vt 0.3611 0.2000 1.0000
vt 0.4167 0.2000 1.0000
vt 0.4722 0.2000 1.0000
vt 0.5278 0.2000 1.0000
vt 0.5833 0.2000 1.0000
vt 0.6389 0.2000 1.0000
vt 0.6944 0.2000 1.0000
vt 0.8056 0.4000 1.0000
vt 0.7500 0.4000 1.0000
vt 0.8611 0.4000 1.0000
vt 0.9167 0.4000 1.0000
vt 0.9722 0.4000 1.0000
vt 0.0278 0.4000 1.0000
vt -0.0278 0.4000 1.0000
vt 0.0833 0.4000 1.0000
vt 0.1389 0.4000 1.0000
vt 0.1944 0.4000 1.0000
vt 0.2500 0.4000 1.0000
vt 0.3056 0.4000 1.0000
vt 0.3611 0.4000 1.0000
vt 0.4167 0.4000 1.0000
vt 0.4722 0.4000 1.0000
vt 0.5278 0.4000 1.0000
vt 0.5833 0.4000 1.0000
vt 0.6389 0.4000 1.0000
vt 0.6944 0.4000 1.0000
vt 0.8056 0.6000 1.0000
vt 0.7500 0.6000 1.0000
vt 0.8611 0.6000 1.0000
vt 0.9167 0.6000 1.0000
vt 0.9722 0.6000 1.0000
vt 0.0278 0.6000 1.0000
vt -0.0278 0.6000 1.0000
vt 0.0833 0.6000 1.0000
vt 0.1389 0.6000 1.0000
vt 0.1944 0.6000 1.0000
vt 0.2500 0.6000 1.0000
vt 0.3056 0.6000 1.0000
vt 0.3611 0.6000 1.0000
vt 0.4167 0.6000 1.0000
vt 0.4722 0.6000 1.0000
vt 0.5278 0.6000 1.0000
vt 0.5833 0.6000 1.0000
vt 0.6389 0.6000 1.0000
vt 0.6944 0.6000 1.0000
vt 0.8056 0.8000 1.0000
vt 0.7500 0.8000 1.0000
vt 0.8611 0.8000 1.0000
vt 0.9167 0.8000 1.0000
vt 0.9722 0.8000 1.0000
vt 0.0278 0.8000 1.0000
vt -0.0278 0.8000 1.0000
vt 0.0833 0.8000 1.0000
vt 0.1389 0.8000 1.0000
vt 0.1944 0.8000 1.0000
vt 0.2500 0.8000 1.0000
vt 0.3056 0.8000 1.0000
vt 0.3611 0.8000 1.0000
vt 0.4167 0.8000 1.0000
vt 0.4722 0.8000 1.0000
vt 0.5278 0.8000 1.0000
vt 0.5833 0.8000 1.0000
vt 0.6389 0.8000 1.0000
vt 0.6944 0.8000 1.0000
vt 0.8056 1.0000 1.0000
vt 0.7500 1.0000 1.0000
vt 0.8611 1.0000 1.0000
vt 0.9167 1.0000 1.0000
vt 0.9722 1.0000 1.0000
vt 0.0278 1.0000 1.0000
vt -0.0278 1.0000 1.0000
vt 0.0833 1.0000 1.0000
vt 0.1389 1.0000 1.0000
vt 0.1944 1.0000 1.0000
vt 0.2500 1.0000 1.0000
vt 0.3056 1.0000 1.0000
vt 0.3611 1.0000 1.0000
vt 0.4167 1.0000 1.0000
vt 0.4722 1.0000 1.0000
vt 0.5278 1.0000 1.0000
vt 0.5833 1.0000 1.0000
vt 0.6389 1.0000 1.0000
vt 0.6944 1.0000 1.0000
vt 0.5000 1.0000 0.0000
vt 0.9708 1.0000 0.8794
# 117 texture coords

o Cylinder001
g Cylinder001
usemtl wire_229154215
s 1
f 1/1/1 2/2/2 3/3/3 4/4/4 
f 1/1/1 5/5/5 6/6/6 2/2/2 
f 1/1/1 7/7/7 8/8/8 5/9/5 
f 1/1/1 9/10/9 10/11/10 7/7/7 
f 1/1/1 11/12/11 12/13/12 9/10/9 
f 1/1/1 13/14/13 14/15/14 11/12/11 
f 1/1/1 15/16/15 16/17/16 13/14/13 
f 1/1/1 17/18/17 18/19/18 15/16/15 
f 1/1/1 4/4/4 19/20/19 17/18/17 
s 8
f 4/4/4 3/3/3 20/21/20 21/22/21 
f 3/3/3 2/2/2 22/23/22 20/21/20 
f 2/2/2 6/6/6 23/24/23 22/23/22 
f 6/6/6 5/5/5 24/25/24 23/24/23 
f 5/9/5 8/8/8 25/26/25 24/27/24 
f 8/8/8 7/7/7 26/28/26 25/26/25 
f 7/7/7 10/11/10 27/29/27 26/28/26 
f 10/11/10 9/10/9 28/30/28 27/29/27 
f 9/10/9 12/13/12 29/31/29 28/30/28 
f 12/13/12 11/12/11 30/32/30 29/31/29 
f 11/12/11 14/15/14 31/33/31 30/32/30 
f 14/15/14 13/14/13 32/34/32 31/33/31 
f 13/14/13 16/17/16 33/35/33 32/34/32 
f 16/17/16 15/16/15 34/36/34 33/35/33 
f 15/16/15 18/19/18 35/37/35 34/36/34 
f 18/19/18 17/18/17 36/38/36 35/37/35 
f 17/18/17 19/20/19 37/39/37 36/38/36 
f 19/20/19 4/4/4 21/22/21 37/39/37 
f 21/22/21 20/21/20 38/40/38 39/41/39 
f 20/21/20 22/23/22 40/42/22 38/40/38 
f 22/23/22 23/24/23 41/43/40 40/42/22 
f 23/24/23 24/25/24 42/44/41 41/43/40 
f 24/27/24 25/26/25 43/45/42 42/46/41 
f 25/26/25 26/28/26 44/47/43 43/45/42 
f 26/28/26 27/29/27 45/48/27 44/47/43 
f 27/29/27 28/30/28 46/49/44 45/48/27 
f 28/30/28 29/31/29 47/50/45 46/49/44 
f 29/31/29 30/32/30 48/51/46 47/50/45 
f 30/32/30 31/33/31 49/52/47 48/51/46 
f 31/33/31 32/34/32 50/53/48 49/52/47 
f 32/34/32 33/35/33 51/54/49 50/53/48 
f 33/35/33 34/36/34 52/55/50 51/54/49 
f 34/36/34 35/37/35 53/56/51 52/55/50 
f 35/37/35 36/38/36 54/57/52 53/56/51 
f 36/38/36 37/39/37 55/58/53 54/57/52 
f 37/39/37 21/22/21 39/41/39 55/58/53 
f 39/41/39 38/40/38 56/59/38 57/60/39 
f 38/40/38 40/42/22 58/61/54 56/59/38 
f 40/42/22 41/43/40 59/62/40 58/61/54 
f 41/43/40 42/44/41 60/63/55 59/62/40 
f 42/46/41 43/45/42 61/64/42 60/65/55 
f 43/45/42 44/47/43 62/66/43 61/64/42 
f 44/47/43 45/48/27 63/67/27 62/66/43 
f 45/48/27 46/49/44 64/68/28 63/67/27 
f 46/49/44 47/50/45 65/69/29 64/68/28 
f 47/50/45 48/51/46 66/70/30 65/69/29 
f 48/51/46 49/52/47 67/71/31 66/70/30 
f 49/52/47 50/53/48 68/72/32 67/71/31 
f 50/53/48 51/54/49 69/73/33 68/72/32 
f 51/54/49 52/55/50 70/74/34 69/73/33 
f 52/55/50 53/56/51 71/75/35 70/74/34 
f 53/56/51 54/57/52 72/76/52 71/75/35 
f 54/57/52 55/58/53 73/77/53 72/76/52 
f 55/58/53 39/41/39 57/60/39 73/77/53 
f 57/60/39 56/59/38 74/78/38 75/79/39 
f 56/59/38 58/61/54 76/80/22 74/78/38 
f 58/61/54 59/62/40 77/81/40 76/80/22 
f 59/62/40 60/63/55 78/82/41 77/81/40 
f 60/65/55 61/64/42 79/83/42 78/84/41 
f 61/64/42 62/66/43 80/85/43 79/83/42 
f 62/66/43 63/67/27 81/86/27 80/85/43 
f 63/67/27 64/68/28 82/87/28 81/86/27 
f 64/68/28 65/69/29 83/88/29 82/87/28 
f 65/69/29 66/70/30 84/89/30 83/88/29 
f 66/70/30 67/71/31 85/90/31 84/89/30 
f 67/71/31 68/72/32 86/91/32 85/90/31 
f 68/72/32 69/73/33 87/92/33 86/91/32 
f 69/73/33 70/74/34 88/93/34 87/92/33 
f 70/74/34 71/75/35 89/94/35 88/93/34 
f 71/75/35 72/76/52 90/95/52 89/94/35 
f 72/76/52 73/77/53 91/96/53 90/95/52 
f 73/77/53 57/60/39 75/79/39 91/96/53 
f 75/79/39 74/78/38 92/97/56 93/98/57 
f 74/78/38 76/80/22 94/99/58 92/97/56 
f 76/80/22 77/81/40 95/100/59 94/99/58 
f 77/81/40 78/82/41 96/101/60 95/100/59 
f 78/84/41 79/83/42 97/102/61 96/103/60 
f 79/83/42 80/85/43 98/104/62 97/102/61 
f 80/85/43 81/86/27 99/105/63 98/104/62 
f 81/86/27 82/87/28 100/106/64 99/105/63 
f 82/87/28 83/88/29 101/107/65 100/106/64 
f 83/88/29 84/89/30 102/108/66 101/107/65 
f 84/89/30 85/90/31 103/109/67 102/108/66 
f 85/90/31 86/91/32 104/110/68 103/109/67 
f 86/91/32 87/92/33 105/111/69 104/110/68 
f 87/92/33 88/93/34 106/112/70 105/111/69 
f 88/93/34 89/94/35 107/113/71 106/112/70 
f 89/94/35 90/95/52 108/114/72 107/113/71 
f 90/95/52 91/96/53 109/115/73 108/114/72 
f 91/96/53 75/79/39 93/98/57 109/115/73 
s 1
f 110/116/74 109/115/73 93/98/57 92/97/56 
f 110/116/74 92/97/56 94/99/58 95/100/59 
f 110/116/74 95/100/59 96/101/60 97/117/61 
f 110/116/74 97/102/61 98/104/62 99/105/63 
f 110/116/74 99/105/63 100/106/64 101/107/65 
f 110/116/74 101/107/65 102/108/66 103/109/67 
f 110/116/74 103/109/67 104/110/68 105/111/69 
f 110/116/74 105/111/69 106/112/70 107/113/71 
f 110/116/74 107/113/71 108/114/72 109/115/73 
# 108 polygons

