# 3ds Max Wavefront OBJ Exporter v0.97b - (c)2007 guruware
# File Created: 09.04.2018 16:53:00

mtllib Base Enceinte Concert.mtl

#
# object Box001
#

v  255.6756 0.0000 -401.8071
v  255.6756 0.0000 -431.8071
v  295.6756 0.0000 -424.7307
v  295.6756 0.0000 -408.8835
v  255.6756 60.0000 -401.8071
v  295.6756 60.0000 -408.8835
v  295.6756 60.0000 -424.7307
v  255.6756 60.0000 -431.8071
v  272.8077 49.2946 -420.4211
v  272.8077 49.2946 -413.1931
v  272.8077 53.5186 -413.1931
v  272.8077 53.5186 -420.4211
v  255.6756 0.8999 -402.7070
v  255.6756 0.8999 -430.9072
v  255.6756 59.1001 -402.7070
v  255.6756 59.1001 -430.9072
v  255.6756 0.9232 -403.1966
v  255.6756 0.9232 -430.4176
v  255.6756 59.0768 -403.1966
v  255.6756 59.0768 -430.4176
v  257.1756 0.9232 -403.1966
v  257.1756 0.9232 -430.4176
v  257.1756 59.0768 -403.1966
v  257.1756 56.9213 -403.1966
v  257.1756 45.8918 -403.1966
v  257.1756 59.0768 -430.4176
v  257.1756 45.8918 -430.4176
v  257.1756 56.9213 -430.4176
v  257.1756 56.9213 -426.2437
v  257.1756 56.9213 -407.3705
v  257.1756 45.8918 -407.3705
v  257.1756 45.8918 -426.2437
v  257.1756 46.3422 -426.2437
v  257.1756 56.4710 -426.2437
v  257.1756 56.4710 -407.3705
v  257.1756 46.3422 -407.3705
v  257.1756 46.3422 -408.1411
v  257.1756 46.3422 -425.4731
v  257.1756 56.4710 -425.4731
v  257.1756 56.4710 -408.1411
# 40 vertices

vn -0.5286 -0.5687 0.6302
vn -0.5286 -0.5687 -0.6302
vn 0.6203 -0.5872 -0.5201
vn 0.6203 -0.5872 0.5201
vn -0.5286 0.5687 0.6302
vn 0.6203 0.5872 0.5201
vn 0.6203 0.5872 -0.5201
vn -0.5286 0.5687 -0.6302
vn -0.7031 0.5281 0.4761
vn -0.7031 0.5281 -0.4761
vn -0.7031 -0.5281 -0.4761
vn -0.7031 -0.5281 0.4761
vn -1.0000 0.0000 -0.0000
vn -0.9045 0.3015 -0.3015
vn -0.9045 0.3015 0.3015
vn -0.9045 -0.3015 -0.3015
vn -0.9045 -0.3015 0.3015
vn -0.5774 0.5774 -0.5774
vn -0.5774 0.5774 0.5774
vn -0.5774 -0.5774 -0.5774
vn -0.7071 0.0000 -0.7071
vn -0.5774 -0.5774 0.5774
vn -0.7071 0.0000 0.7071
vn -0.9474 0.2188 -0.2336
vn -0.9474 0.2188 0.2336
vn -0.9474 -0.2188 0.2336
vn -0.9474 -0.2188 -0.2336
# 27 vertex normals

vt 1.0000 0.0000 0.0000
vt 1.0000 1.0000 0.0000
vt 0.0000 1.0000 0.0000
vt 0.0000 0.0000 0.0000
vt 0.1816 0.3469 0.0000
vt 0.8184 0.3469 0.0000
vt 0.8184 0.6531 0.0000
vt 0.1816 0.6531 0.0000
vt 1.0000 0.6667 0.0000
vt 1.0000 0.3333 0.0000
vt 0.0000 0.3333 0.0000
vt 0.0000 0.6667 0.0000
vt 0.1533 0.6667 0.0000
vt 0.8467 0.6667 0.0000
vt 0.8467 0.3333 0.0000
vt 0.1533 0.3333 0.0000
vt 0.1533 0.3469 0.0000
vt 0.1533 0.6531 0.0000
vt 0.8467 0.6531 0.0000
vt 0.8467 0.3469 0.0000
# 20 texture coords

o Box001
g Box001
usemtl wire_177028149
s 2
f 1/1/1 2/2/2 3/3/3 4/4/4 
s 4
f 5/4/5 6/1/6 7/2/7 8/3/8 
s 8
f 1/4/1 4/1/4 6/2/6 5/3/5 
s 16
f 4/4/4 3/1/3 7/2/7 6/3/6 
s 32
f 3/4/3 2/1/2 8/2/8 7/3/7 
s 64
f 9/5/9 10/6/10 11/7/11 12/8/12 
s off
f 2/4/2 1/1/1 13/1/13 14/4/13 
f 1/1/1 5/2/5 15/2/13 13/1/13 
f 5/2/5 8/3/8 16/3/13 15/2/13 
f 8/3/8 2/4/2 14/4/13 16/3/13 
f 14/4/13 13/1/13 17/1/14 18/4/15 
f 13/1/13 15/2/13 19/2/16 17/1/14 
f 15/2/13 16/3/13 20/3/17 19/2/16 
f 16/3/13 14/4/13 18/4/15 20/3/17 
f 18/4/15 17/1/14 21/1/18 22/4/19 
f 17/1/14 19/2/16 23/2/20 24/9/21 25/10/21 21/1/18 
f 19/2/16 20/3/17 26/3/22 23/2/20 
f 20/3/17 18/4/15 22/4/19 27/11/23 28/12/23 26/3/22 
s 64
f 24/9/21 23/2/20 26/3/22 28/12/23 29/13/13 30/14/13 
f 27/11/23 22/4/19 21/1/18 25/10/21 31/15/13 32/16/13 
f 29/13/13 28/12/23 27/11/23 32/16/13 33/17/13 34/18/13 
f 31/15/13 25/10/21 24/9/21 30/14/13 35/19/13 36/20/13 
f 33/17/13 32/16/13 31/15/13 36/20/13 37/6/24 38/5/25 
f 35/19/13 30/14/13 29/13/13 34/18/13 39/8/26 40/7/27 
f 37/6/24 36/20/13 35/19/13 40/7/27 
f 39/8/26 34/18/13 33/17/13 38/5/25 
s off
f 38/5/25 37/6/24 10/6/10 9/5/9 
f 37/6/24 40/7/27 11/7/11 10/6/10 
f 40/7/27 39/8/26 12/8/12 11/7/11 
f 39/8/26 38/5/25 9/5/9 12/8/12 
# 30 polygons

