# 3ds Max Wavefront OBJ Exporter v0.97b - (c)2007 guruware
# File Created: 10.04.2018 10:29:11

mtllib Perçant.mtl

#
# object Prism001
#

v  0.5016 3.0000 2.0064
v  -9.4984 3.0000 13.1868
v  10.5016 3.0000 13.1868
v  0.5016 3.0000 -20.3543
v  -9.4984 0.0000 13.1868
v  10.5016 0.0000 13.1868
v  0.5016 0.0000 -20.3543
v  0.5016 0.0000 2.0064
# 8 vertices

vn 0.0000 1.0000 -0.0000
vn -0.6623 0.5636 0.4936
vn 0.6623 0.5636 0.4936
vn 0.0000 0.5424 -0.8401
vn -0.6623 -0.5636 0.4936
vn 0.6623 -0.5636 0.4936
vn 0.0000 -0.5424 -0.8401
vn 0.0000 -1.0000 -0.0000
# 8 vertex normals

vt 0.5000 0.3333 0.0000
vt -0.0000 0.0000 0.0000
vt 1.0000 0.0000 0.0000
vt 0.5000 1.0000 0.0000
vt 0.0000 1.0000 0.0000
vt 0.0000 0.0000 0.0000
vt 0.2222 0.0000 0.0000
vt 0.2222 1.0000 0.0000
vt 0.6111 0.0000 0.0000
vt 0.6111 1.0000 0.0000
vt 1.0000 1.0000 0.0000
vt 0.5000 0.6667 0.0000
vt 0.5000 0.0000 0.0000
# 13 texture coords

o Prism001
g Prism001
usemtl wire_213154229
s 1
f 1/1/1 2/2/2 3/3/3 
f 1/1/1 3/3/3 4/4/4 
f 1/1/1 4/4/4 2/2/2 
s 2
f 2/5/2 5/6/5 6/7/6 3/8/3 
s 4
f 3/8/3 6/7/6 7/9/7 4/10/4 
s 8
f 4/10/4 7/9/7 5/3/5 2/11/2 
s 1
f 5/11/5 8/12/8 6/5/6 
f 6/5/6 8/12/8 7/13/7 
f 7/13/7 8/12/8 5/11/5 
# 3 polygons - 6 triangles

