# 3ds Max Wavefront OBJ Exporter v0.97b - (c)2007 guruware
# File Created: 12.04.2018 22:26:46

mtllib Signalitique.mtl

#
# object Box001
#

v  -2.6934 -0.5004 -0.0196
v  -2.6934 -0.5004 -10.0196
v  2.3066 -0.5004 -10.0196
v  2.3066 -0.5004 -0.0196
v  -2.6934 0.4996 -0.0196
v  2.3066 0.4996 -0.0196
v  2.3066 0.4996 -10.0196
v  -2.6934 0.4996 -10.0196
v  -0.0003 0.5004 3.3280
v  4.5000 0.5004 -0.0175
v  -4.5000 0.5004 -0.0182
v  -0.0008 0.5004 10.0196
v  4.5000 -0.4996 -0.0175
v  -4.5000 -0.4996 -0.0182
v  -0.0008 -0.4996 10.0196
v  -0.0003 -0.4996 3.3280
# 16 vertices

vn -0.5774 -0.5774 0.5774
vn -0.5774 -0.5774 -0.5774
vn 0.5774 -0.5774 -0.5774
vn 0.5774 -0.5774 0.5774
vn -0.5774 0.5774 0.5774
vn 0.5774 0.5774 0.5774
vn 0.5774 0.5774 -0.5774
vn -0.5774 0.5774 -0.5774
vn 0.0000 1.0000 -0.0000
vn 0.6964 0.5584 -0.4509
vn -0.6963 0.5584 -0.4510
vn -0.0001 0.5484 0.8362
vn 0.6964 -0.5584 -0.4509
vn -0.6963 -0.5584 -0.4510
vn -0.0001 -0.5484 0.8362
vn 0.0000 -1.0000 -0.0000
# 16 vertex normals

vt 1.0000 0.0000 0.0000
vt 1.0000 1.0000 0.0000
vt 0.0000 1.0000 0.0000
vt 0.0000 0.0000 0.0000
vt 0.5000 0.3333 0.0000
vt -0.0000 0.0000 0.0000
vt 0.5000 1.0000 0.0000
vt 0.2903 0.0000 0.0000
vt 0.2903 1.0000 0.0000
vt 0.6452 0.0000 0.0000
vt 0.6452 1.0000 0.0000
vt 0.5000 0.6667 0.0000
vt 0.5000 0.0000 0.0000
# 13 texture coords

o Box001
g Box001
usemtl wire_184155229
s 2
f 1/1/1 2/2/2 3/3/3 4/4/4 
s 4
f 5/4/5 6/1/6 7/2/7 8/3/8 
s 8
f 1/4/1 4/1/4 6/2/6 5/3/5 
s 16
f 4/4/4 3/1/3 7/2/7 6/3/6 
s 32
f 3/4/3 2/1/2 8/2/8 7/3/7 
s 64
f 2/4/2 1/1/1 5/2/5 8/3/8 
s 1
f 9/5/9 10/6/10 11/1/11 
f 9/5/9 11/1/11 12/7/12 
f 9/5/9 12/7/12 10/6/10 
s 2
f 10/3/10 13/4/13 14/8/14 11/9/11 
s 4
f 11/9/11 14/8/14 15/10/15 12/11/12 
s 8
f 12/11/12 15/10/15 13/1/13 10/2/10 
s 1
f 13/2/13 16/12/16 14/3/14 
f 14/3/14 16/12/16 15/13/15 
f 15/13/15 16/12/16 13/2/13 
# 9 polygons - 6 triangles

