# 3ds Max Wavefront OBJ Exporter v0.97b - (c)2007 guruware
# File Created: 10.04.2018 11:34:09

mtllib Phonographe-DISQUE.mtl

#
# object Disque
#

v  4.5963 -0.0250 -3.8567
v  5.6382 -0.0250 -2.0521
v  6.0000 -0.0250 -0.0000
v  0.0000 -0.0250 -0.0000
v  1.0419 -0.0250 -5.9088
v  3.0000 -0.0250 -5.1962
v  -3.0000 -0.0250 -5.1962
v  -1.0419 -0.0250 -5.9088
v  -5.6382 -0.0250 -2.0521
v  -4.5963 -0.0250 -3.8567
v  -5.6382 -0.0250 2.0521
v  -6.0000 -0.0250 -0.0000
v  -3.0000 -0.0250 5.1962
v  -4.5963 -0.0250 3.8567
v  1.0419 -0.0250 5.9088
v  -1.0419 -0.0250 5.9088
v  4.5963 -0.0250 3.8567
v  3.0000 -0.0250 5.1962
v  5.6382 -0.0250 2.0521
v  5.6382 0.0250 -2.0521
v  6.0000 0.0250 -0.0000
v  4.5963 0.0250 -3.8567
v  3.0000 0.0250 -5.1962
v  1.0419 0.0250 -5.9088
v  -1.0419 0.0250 -5.9088
v  -3.0000 0.0250 -5.1962
v  -4.5963 0.0250 -3.8567
v  -5.6382 0.0250 -2.0521
v  -6.0000 0.0250 -0.0000
v  -5.6382 0.0250 2.0521
v  -4.5963 0.0250 3.8567
v  -3.0000 0.0250 5.1962
v  -1.0419 0.0250 5.9088
v  1.0419 0.0250 5.9088
v  3.0000 0.0250 5.1962
v  4.5963 0.0250 3.8567
v  5.6382 0.0250 2.0521
v  0.0000 0.0250 -0.0000
# 38 vertices

vn 0.5686 -0.6701 -0.4771
vn 0.6976 -0.6700 -0.2539
vn 0.7423 -0.6700 0.0000
vn 0.0000 -1.0000 -0.0000
vn 0.1289 -0.6701 -0.7310
vn 0.3711 -0.6701 -0.6428
vn -0.3712 -0.6700 -0.6429
vn -0.1289 -0.6700 -0.7311
vn -0.6976 -0.6700 -0.2539
vn -0.5687 -0.6700 -0.4772
vn -0.6976 -0.6700 0.2539
vn -0.7423 -0.6700 -0.0000
vn -0.3711 -0.6701 0.6429
vn -0.5686 -0.6701 0.4771
vn 0.1289 -0.6701 0.7310
vn -0.1289 -0.6700 0.7311
vn 0.5687 -0.6700 0.4772
vn 0.3712 -0.6701 0.6428
vn 0.6976 -0.6700 0.2539
vn 0.6976 0.6700 -0.2539
vn 0.7423 0.6700 0.0000
vn 0.5686 0.6701 -0.4771
vn 0.3711 0.6701 -0.6428
vn 0.1289 0.6701 -0.7310
vn -0.1289 0.6700 -0.7311
vn -0.3712 0.6700 -0.6429
vn -0.5687 0.6700 -0.4772
vn -0.6976 0.6700 -0.2539
vn -0.7423 0.6700 0.0000
vn -0.6976 0.6700 0.2539
vn -0.5686 0.6701 0.4771
vn -0.3711 0.6701 0.6429
vn -0.1289 0.6700 0.7311
vn 0.1289 0.6701 0.7310
vn 0.3712 0.6701 0.6428
vn 0.5687 0.6700 0.4772
vn 0.6976 0.6700 0.2539
vn 0.0000 1.0000 0.0000
# 38 vertex normals

vt 0.8611 0.0000 1.0000
vt 0.8056 0.0000 1.0000
vt 0.7500 0.0000 1.0000
vt 0.5000 0.0000 0.0000
vt 0.9722 0.0000 1.0000
vt 0.9167 0.0000 1.0000
vt 0.0833 0.0000 1.0000
vt 0.0278 0.0000 1.0000
vt -0.0278 0.0000 1.0000
vt 0.1944 0.0000 1.0000
vt 0.1389 0.0000 1.0000
vt 0.3056 0.0000 1.0000
vt 0.2500 0.0000 1.0000
vt 0.4167 0.0000 1.0000
vt 0.3611 0.0000 1.0000
vt 0.5278 0.0000 1.0000
vt 0.4722 0.0000 1.0000
vt 0.6389 0.0000 1.0000
vt 0.5833 0.0000 1.0000
vt 0.6944 0.0000 1.0000
vt 0.8056 1.0000 1.0000
vt 0.7500 1.0000 1.0000
vt 0.8611 1.0000 1.0000
vt 0.9167 1.0000 1.0000
vt 0.9722 1.0000 1.0000
vt 0.0278 1.0000 1.0000
vt -0.0278 1.0000 1.0000
vt 0.0833 1.0000 1.0000
vt 0.1389 1.0000 1.0000
vt 0.1944 1.0000 1.0000
vt 0.2500 1.0000 1.0000
vt 0.3056 1.0000 1.0000
vt 0.3611 1.0000 1.0000
vt 0.4167 1.0000 1.0000
vt 0.4722 1.0000 1.0000
vt 0.5278 1.0000 1.0000
vt 0.5833 1.0000 1.0000
vt 0.6389 1.0000 1.0000
vt 0.6944 1.0000 1.0000
vt 0.5000 1.0000 0.0000
vt 0.9708 1.0000 0.8794
# 41 texture coords

o Disque
g Disque
usemtl Phonographe_DISQUE_wire_135006006
s 1
f 1/1/1 2/2/2 3/3/3 4/4/4 
f 5/5/5 6/6/6 1/1/1 4/4/4 
f 7/7/7 8/8/8 5/9/5 4/4/4 
f 9/10/9 10/11/10 7/7/7 4/4/4 
f 11/12/11 12/13/12 9/10/9 4/4/4 
f 13/14/13 14/15/14 11/12/11 4/4/4 
f 15/16/15 16/17/16 13/14/13 4/4/4 
f 17/18/17 18/19/18 15/16/15 4/4/4 
f 3/3/3 19/20/19 17/18/17 4/4/4 
s 8
f 2/2/2 20/21/20 21/22/21 3/3/3 
f 1/1/1 22/23/22 20/21/20 2/2/2 
f 6/6/6 23/24/23 22/23/22 1/1/1 
f 5/5/5 24/25/24 23/24/23 6/6/6 
f 8/8/8 25/26/25 24/27/24 5/9/5 
f 7/7/7 26/28/26 25/26/25 8/8/8 
f 10/11/10 27/29/27 26/28/26 7/7/7 
f 9/10/9 28/30/28 27/29/27 10/11/10 
f 12/13/12 29/31/29 28/30/28 9/10/9 
f 11/12/11 30/32/30 29/31/29 12/13/12 
f 14/15/14 31/33/31 30/32/30 11/12/11 
f 13/14/13 32/34/32 31/33/31 14/15/14 
f 16/17/16 33/35/33 32/34/32 13/14/13 
f 15/16/15 34/36/34 33/35/33 16/17/16 
f 18/19/18 35/37/35 34/36/34 15/16/15 
f 17/18/17 36/38/36 35/37/35 18/19/18 
f 19/20/19 37/39/37 36/38/36 17/18/17 
f 3/3/3 21/22/21 37/39/37 19/20/19 
s 1
f 37/39/37 21/22/21 20/21/20 38/40/38 
f 20/21/20 22/23/22 23/24/23 38/40/38 
f 23/24/23 24/25/24 25/41/25 38/40/38 
f 25/26/25 26/28/26 27/29/27 38/40/38 
f 27/29/27 28/30/28 29/31/29 38/40/38 
f 29/31/29 30/32/30 31/33/31 38/40/38 
f 31/33/31 32/34/32 33/35/33 38/40/38 
f 33/35/33 34/36/34 35/37/35 38/40/38 
f 35/37/35 36/38/36 37/39/37 38/40/38 
# 36 polygons

