# 3ds Max Wavefront OBJ Exporter v0.97b - (c)2007 guruware
# File Created: 10.04.2018 11:32:55

mtllib Phonographe-Cylindre_TOP.mtl

#
# object Cylinder_TOP001
#

v  9.8666 5.5505 -0.9474
v  10.6975 -0.0477 -3.9349
v  9.9352 0.2538 -3.8446
v  9.1585 5.4883 -1.0490
v  5.9059 9.3847 2.3034
v  5.4547 9.0730 1.9925
v  0.0727 10.2372 4.7855
v  0.0003 9.8697 4.3140
v  -5.4731 7.6260 5.1787
v  -5.7807 7.8374 5.7106
v  -9.2280 3.0540 4.3122
v  -9.7957 2.9473 4.7849
v  -10.0816 -2.4977 1.9634
v  -10.6975 -2.8804 2.3026
v  -7.7467 -7.0935 -1.0783
v  -8.2002 -7.7954 -0.9482
v  -2.9650 -9.2740 -3.8471
v  -3.0967 -10.2372 -3.9353
v  2.9928 -9.4309 -5.7106
v  2.7295 -8.5199 -5.5074
v  8.1350 -5.6325 -5.7105
v  7.5384 -4.9682 -5.5065
v  2.7227 -8.2232 -4.8063
v  7.2668 -4.8672 -4.8053
v  -2.6630 -8.9363 -3.2361
v  -7.1798 -6.8769 -0.6199
v  -9.3844 -2.5372 2.2523
v  -8.5773 2.7150 4.4735
v  -5.0290 7.0352 5.2925
v  0.1430 9.1553 4.4755
v  5.2974 8.4023 2.2818
v  8.7977 5.0145 -0.5925
v  9.5318 0.0675 -3.2346
# 33 vertices

vn 0.9079 0.4191 0.0014
vn 0.9603 -0.0683 -0.2703
vn -0.3682 0.4254 -0.8267
vn -0.3469 0.4052 -0.8458
vn 0.5687 0.7634 0.3063
vn -0.3225 0.4034 -0.8563
vn 0.0418 0.8420 0.5379
vn -0.3031 0.4050 -0.8626
vn -0.2824 0.4054 -0.8694
vn -0.4900 0.6231 0.6097
vn -0.2552 0.4128 -0.8743
vn -0.8420 0.1883 0.5056
vn -0.2246 0.4377 -0.8706
vn -0.9158 -0.2975 0.2698
vn -0.2425 0.4772 -0.8446
vn -0.6933 -0.7204 -0.0174
vn -0.2768 0.5097 -0.8146
vn -0.2468 -0.9289 -0.2761
vn 0.2750 -0.8610 -0.4278
vn -0.3275 0.4992 -0.8022
vn 0.7230 -0.5429 -0.4273
vn -0.3641 0.4643 -0.8074
vn -0.0862 0.5378 0.8387
vn -0.4811 0.2413 0.8428
vn 0.3791 0.6043 0.7008
vn 0.7760 0.4015 0.4865
vn 0.9709 0.0207 0.2388
vn 0.9055 -0.4213 0.0502
vn 0.5995 -0.8003 -0.0115
vn 0.1502 -0.9866 0.0635
vn -0.2995 -0.9201 0.2523
vn -0.6058 -0.6237 0.4940
vn -0.6738 -0.1918 0.7136
# 33 vertex normals

vt 0.8409 0.0868 1.0000
vt 0.7500 0.0870 1.0000
vt 0.7277 0.0000 0.9222
vt 0.8251 0.0000 0.9538
vt 0.9318 0.0866 1.0000
vt 0.9119 0.0000 0.9538
vt 0.0227 0.0865 1.0000
vt -0.0682 0.0866 1.0000
vt -0.0661 0.0020 1.0000
vt 0.0207 0.0021 1.0000
vt 0.1115 0.0021 1.0000
vt 0.1136 0.0865 1.0000
vt 0.0248 0.0021 1.0000
vt 0.2024 0.0020 1.0000
vt 0.2045 0.0867 1.0000
vt 0.1156 0.0020 1.0000
vt 0.2933 0.0020 1.0000
vt 0.2955 0.0869 1.0000
vt 0.2065 0.0020 1.0000
vt 0.3842 0.0019 1.0000
vt 0.3864 0.0872 1.0000
vt 0.2974 0.0019 1.0000
vt 0.4751 0.0019 1.0000
vt 0.4773 0.0874 1.0000
vt 0.3884 0.0019 1.0000
vt 0.5682 0.0874 1.0000
vt 0.4793 0.0018 1.0000
vt 0.5661 0.0018 1.0000
vt 0.6591 0.0873 1.0000
vt 0.5703 0.0019 1.0000
vt 0.6571 0.0019 1.0000
vt 0.6613 0.0019 1.0000
vt 0.7480 0.0019 1.0000
vt 0.2005 0.0000 -0.4129
vt 0.4181 0.0000 0.1876
vt 0.0937 0.0000 -0.8362
vt 0.1159 0.0000 -0.9940
vt 0.2601 0.0000 -0.8362
vt 0.4804 0.0000 -0.4129
vt 0.7070 0.0000 0.1415
vt 0.8678 0.0000 0.6510
# 41 texture coords

o Cylinder_TOP001
g Cylinder_TOP001
usemtl Phonographe_Cylindre_TOP_wire_135006006
s 2
f 1/1/1 2/2/2 3/3/3 4/4/4 
f 5/5/5 1/1/1 4/4/4 6/6/6 
f 7/7/7 5/8/5 6/9/6 8/10/8 
f 9/11/9 10/12/10 7/7/7 8/13/8 
f 11/14/11 12/15/12 10/12/10 9/16/9 
f 13/17/13 14/18/14 12/15/12 11/19/11 
f 15/20/15 16/21/16 14/18/14 13/22/13 
f 17/23/17 18/24/18 16/21/16 15/25/15 
f 19/26/19 18/24/18 17/27/17 20/28/20 
f 21/29/21 19/26/19 20/30/20 22/31/22 
f 2/2/2 21/29/21 22/32/22 3/33/3 
s 1
f 20/34/20 23/34/23 24/35/24 22/35/22 
f 17/36/17 25/36/25 23/34/23 20/34/20 
f 15/37/15 26/37/26 25/36/25 17/36/17 
f 13/38/13 27/38/27 26/37/26 15/37/15 
f 11/39/11 28/39/28 27/38/27 13/38/13 
f 9/40/9 29/40/29 28/39/28 11/39/11 
f 8/41/8 30/41/30 29/40/29 9/40/9 
f 6/6/6 31/6/31 30/41/30 8/41/8 
f 4/4/4 32/4/32 31/6/31 6/6/6 
f 3/3/3 33/3/33 32/4/32 4/4/4 
f 22/35/22 24/35/24 33/3/33 3/3/3 
s 4
f 33/5/33 2/9/2 1/11/1 32/1/32 
s 8
f 32/1/32 1/11/1 5/13/5 31/2/31 
f 24/25/24 21/10/21 2/9/2 33/5/33 
s 4
f 31/2/31 5/13/5 7/14/7 30/29/30 
s 8
f 29/32/29 30/29/30 7/14/7 10/16/10 
s 4
f 28/33/28 29/32/29 10/16/10 12/17/12 
s 8
f 27/30/27 28/33/28 12/17/12 14/19/14 
s 4
f 26/31/26 27/30/27 14/19/14 16/20/16 
s 8
f 25/27/25 26/31/26 16/20/16 18/22/18 
s 4
f 25/27/25 18/22/18 19/23/19 23/28/23 
s 16
f 23/28/23 19/23/19 21/10/21 24/25/24 
# 33 polygons

