# 3ds Max Wavefront OBJ Exporter v0.97b - (c)2007 guruware
# File Created: 10.04.2018 10:45:12

mtllib CourbeCac.mtl

#
# object Tube001
#

v  -0.0669 0.0000 -15.4437
v  -0.0669 2.5000 -15.4437
v  5.0634 2.5000 -14.5391
v  5.0634 0.0000 -14.5391
v  0.3917 2.5000 -11.9715
v  0.8427 2.5000 -11.2833
v  2.2934 2.5000 -11.0275
v  2.6201 2.5000 -10.9955
v  2.9436 2.5000 -11.0153
v  3.2640 2.5000 -11.0868
v  3.9202 2.5000 -11.2874
v  0.8427 0.0000 -11.2833
v  2.2934 0.0000 -11.0275
v  0.3917 0.0000 -11.9715
v  3.9202 0.0000 -11.2874
v  3.2640 0.0000 -11.0868
v  2.9436 0.0000 -11.0153
v  2.6201 0.0000 -10.9955
v  9.5749 2.5000 -11.9344
v  9.5749 0.0000 -11.9344
v  4.2400 2.5000 -10.7485
v  4.4299 2.5000 -10.4818
v  4.6593 2.5000 -10.2552
v  4.9282 2.5000 -10.0685
v  5.7709 2.5000 -9.5820
v  6.0670 2.5000 -9.4448
v  6.3779 2.5000 -9.3667
v  6.7037 2.5000 -9.3477
v  7.4246 2.5000 -9.3704
v  4.9282 0.0000 -10.0685
v  5.7709 0.0000 -9.5820
v  7.4246 0.0000 -9.3704
v  6.7037 0.0000 -9.3477
v  6.3779 0.0000 -9.3667
v  6.0670 0.0000 -9.4448
v  4.6593 0.0000 -10.2552
v  4.4299 0.0000 -10.4818
v  4.2400 0.0000 -10.7485
v  12.9235 2.5000 -7.9437
v  12.9235 0.0000 -7.9437
v  7.5266 2.5000 -8.6576
v  7.6017 2.5000 -8.3401
v  7.7324 2.5000 -8.0474
v  7.9188 2.5000 -7.7797
v  8.5443 2.5000 -7.0342
v  8.7759 2.5000 -6.8049
v  9.0422 2.5000 -6.6276
v  9.3431 2.5000 -6.5023
v  9.9749 2.5000 -6.3053
v  7.9188 0.0000 -7.7797
v  8.5443 0.0000 -7.0342
v  9.9749 0.0000 -6.3053
v  9.3431 0.0000 -6.5023
v  9.0422 0.0000 -6.6276
v  8.7759 0.0000 -6.8049
v  7.7324 0.0000 -8.0474
v  7.6017 0.0000 -8.3401
v  7.5266 0.0000 -8.6576
v  14.7052 2.5000 -3.0484
v  14.7052 0.0000 -3.0484
v  9.8554 2.5000 -5.5693
v  9.8299 2.5000 -5.2430
v  9.8602 2.5000 -4.9218
v  9.9463 2.5000 -4.6060
v  10.2791 2.5000 -3.6915
v  10.4178 2.5000 -3.3961
v  10.6057 2.5000 -3.1364
v  10.8429 2.5000 -2.9123
v  11.3591 2.5000 -2.5057
v  9.9463 0.0000 -4.6060
v  10.2791 0.0000 -3.6915
v  11.3591 0.0000 -2.5057
v  10.8429 0.0000 -2.9123
v  10.6057 0.0000 -3.1364
v  10.4178 0.0000 -3.3961
v  9.8602 0.0000 -4.9218
v  9.8299 0.0000 -5.2430
v  9.8554 0.0000 -5.5693
v  14.7052 2.5000 2.1610
v  14.7052 0.0000 2.1610
v  11.0075 2.5000 -1.8681
v  10.8733 2.5000 -1.5693
v  10.7928 2.5000 -1.2567
v  10.7660 2.5000 -0.9302
v  10.7660 2.5000 0.0429
v  10.7962 2.5000 0.3672
v  10.8870 2.5000 0.6737
v  11.0382 2.5000 0.9623
v  11.3907 2.5000 1.5053
v  10.7660 0.0000 -0.9302
v  10.7660 0.0000 0.0429
v  11.3907 0.0000 1.5053
v  11.0382 0.0000 0.9623
v  10.8870 0.0000 0.6737
v  10.7962 0.0000 0.3672
v  10.7928 0.0000 -1.2567
v  10.8733 0.0000 -1.5693
v  11.0075 0.0000 -1.8681
v  12.9235 2.5000 7.0563
v  12.9235 0.0000 7.0563
v  10.8252 2.5000 2.0037
v  10.5978 2.5000 2.2396
v  10.4158 2.5000 2.5064
v  10.2791 2.5000 2.8042
v  9.9463 2.5000 3.7186
v  9.8642 2.5000 4.0336
v  9.8460 2.5000 4.3523
v  9.8916 2.5000 4.6747
v  10.0966 2.5000 5.5310
v  10.2791 0.0000 2.8042
v  9.9463 0.0000 3.7186
v  10.0966 0.0000 5.5310
v  9.8916 0.0000 4.6747
v  9.8460 0.0000 4.3523
v  9.8642 0.0000 4.0336
v  10.4158 0.0000 2.5064
v  10.5978 0.0000 2.2396
v  10.8252 0.0000 2.0037
v  9.5749 2.5000 11.0470
v  9.5749 0.0000 11.0470
v  9.3570 2.5000 5.6709
v  9.0484 2.5000 5.7651
v  8.7775 2.5000 5.9237
v  8.5443 2.5000 6.1468
v  7.9188 2.5000 6.8923
v  7.7305 2.5000 7.1598
v  7.5941 2.5000 7.4515
v  7.5096 2.5000 7.7675
v  7.3823 2.5000 8.4817
v  8.5443 0.0000 6.1468
v  7.9188 0.0000 6.8923
v  7.3823 0.0000 8.4817
v  7.5096 0.0000 7.7675
v  7.5941 0.0000 7.4515
v  7.7305 0.0000 7.1598
v  8.7775 0.0000 5.9237
v  9.0484 0.0000 5.7651
v  9.3570 0.0000 5.6709
v  5.0634 2.5000 13.6517
v  5.0634 0.0000 13.6517
v  6.7037 2.5000 8.4603
v  6.3779 2.5000 8.4794
v  6.0670 2.5000 8.5575
v  5.7709 2.5000 8.6946
v  4.9282 2.5000 9.1811
v  4.6692 2.5000 9.3724
v  4.4696 2.5000 9.6130
v  4.3293 2.5000 9.9028
v  4.0299 2.5000 10.7542
v  5.7709 0.0000 8.6946
v  4.9282 0.0000 9.1811
v  4.0299 0.0000 10.7542
v  4.3293 0.0000 9.9028
v  4.4696 0.0000 9.6130
v  4.6692 0.0000 9.3724
v  6.0670 0.0000 8.5575
v  6.3779 0.0000 8.4794
v  6.7037 0.0000 8.4603
v  -0.0669 2.5000 14.5563
v  -0.0669 0.0000 14.5563
v  3.2214 2.5000 10.2987
v  2.9247 2.5000 10.1720
v  2.6153 2.5000 10.1192
v  2.2934 2.5000 10.1401
v  0.8427 2.5000 10.3959
v  0.3973 2.5000 11.5876
v  2.2934 0.0000 10.1401
v  0.8427 0.0000 10.3959
v  0.3973 0.0000 11.5876
v  2.6153 0.0000 10.1192
v  2.9247 0.0000 10.1720
v  3.2214 0.0000 10.2987
# 172 vertices

vn -0.5717 -0.5630 -0.5968
vn -0.5717 0.5630 -0.5968
vn 0.2539 0.6701 -0.6975
vn 0.2539 -0.6701 -0.6975
vn -0.7040 0.6603 0.2615
vn -0.4283 0.6277 0.6500
vn -0.0971 0.6986 0.7089
vn -0.0133 0.6897 0.7239
vn 0.1013 0.6897 0.7169
vn 0.1827 0.6986 0.6918
vn 0.1090 -0.6753 0.7294
vn 1.0000 0.0000 -0.0000
vn -0.4283 -0.6277 0.6500
vn -0.0971 -0.6986 0.7089
vn -0.7040 -0.6603 0.2615
vn 0.1090 0.6753 0.7294
vn 0.1827 -0.6986 0.6918
vn 0.1013 -0.6897 0.7169
vn -0.0133 -0.6897 0.7239
vn 0.4771 0.6701 -0.5686
vn 0.4771 -0.6701 -0.5686
vn -0.7233 0.5543 -0.4118
vn -0.6002 0.6979 0.3908
vn -0.5525 0.6882 0.4702
vn -0.4635 0.6882 0.5581
vn -0.3836 0.6979 0.6048
vn -0.3302 0.6972 0.6363
vn -0.2424 0.6867 0.6854
vn -0.1103 0.6866 0.7186
vn -0.0097 0.6972 0.7168
vn 0.0000 1.0000 -0.0000
vn -0.3836 -0.6979 0.6048
vn -0.3302 -0.6972 0.6363
vn 0.0000 -1.0000 -0.0000
vn -0.0097 -0.6972 0.7168
vn -0.1103 -0.6866 0.7186
vn -0.2424 -0.6867 0.6854
vn -0.4635 -0.6882 0.5581
vn -0.5525 -0.6882 0.4702
vn -0.6002 -0.6979 0.3908
vn -0.7233 -0.5543 -0.4118
vn 0.6428 0.6701 -0.3711
vn 0.6428 -0.6701 -0.3711
vn -0.7044 0.6971 0.1334
vn -0.6887 0.6866 0.2330
vn -0.6331 0.6866 0.3576
vn -0.5694 0.6972 0.4357
vn -0.5275 0.6969 0.4858
vn -0.4597 0.6860 0.5639
vn -0.3430 0.6860 0.6416
vn -0.2448 0.6969 0.6741
vn -0.5694 -0.6972 0.4357
vn -0.5275 -0.6969 0.4858
vn -0.2448 -0.6969 0.6741
vn -0.3430 -0.6860 0.6416
vn -0.4597 -0.6860 0.5639
vn -0.6331 -0.6866 0.3576
vn -0.6887 -0.6866 0.2330
vn -0.7044 -0.6971 0.1334
vn 0.7310 0.6701 -0.1289
vn 0.7310 -0.6701 -0.1289
vn -0.7111 0.6979 -0.0854
vn -0.7254 0.6883 0.0058
vn -0.7137 0.6883 0.1299
vn -0.6826 0.6979 0.2168
vn -0.6620 0.6971 0.2752
vn -0.6263 0.6866 0.3692
vn -0.5465 0.6866 0.4794
vn -0.4684 0.6972 0.5427
vn -0.6826 -0.6979 0.2168
vn -0.6620 -0.6971 0.2752
vn -0.4684 -0.6972 0.5427
vn -0.5465 -0.6866 0.4794
vn -0.6263 -0.6866 0.3692
vn -0.7137 -0.6883 0.1299
vn -0.7254 -0.6883 0.0058
vn -0.7111 -0.6979 -0.0854
vn 0.7311 0.6700 0.1289
vn 0.7311 -0.6700 0.1289
vn -0.6407 0.6980 -0.3198
vn -0.6844 0.6885 -0.2398
vn -0.7151 0.6886 -0.1205
vn -0.7155 0.6980 -0.0294
vn -0.7165 0.6968 0.0333
vn -0.7145 0.6859 0.1377
vn -0.6744 0.6859 0.2735
vn -0.6191 0.6968 0.3621
vn -0.7155 -0.6980 -0.0294
vn -0.7165 -0.6968 0.0333
vn -0.6191 -0.6968 0.3621
vn -0.6744 -0.6859 0.2735
vn -0.7145 -0.6859 0.1377
vn -0.7151 -0.6886 -0.1205
vn -0.6844 -0.6885 -0.2398
vn -0.6407 -0.6980 -0.3198
vn 0.6429 0.6700 0.3712
vn 0.6429 -0.6700 0.3712
vn -0.4949 0.6981 -0.5175
vn -0.5625 0.6887 -0.4575
vn -0.6312 0.6887 -0.3568
vn -0.6623 0.6981 -0.2720
vn -0.6849 0.6967 -0.2133
vn -0.7192 0.6855 -0.1131
vn -0.7274 0.6855 0.0304
vn -0.7048 0.6967 0.1339
vn -0.6623 -0.6981 -0.2720
vn -0.6849 -0.6967 -0.2133
vn -0.7048 -0.6967 0.1339
vn -0.7274 -0.6855 0.0304
vn -0.7192 -0.6855 -0.1131
vn -0.6312 -0.6887 -0.3568
vn -0.5625 -0.6887 -0.4575
vn -0.4949 -0.6981 -0.5175
vn 0.4772 0.6700 0.5687
vn 0.4772 -0.6700 0.5687
vn -0.1720 0.6950 -0.6981
vn -0.2936 0.6818 -0.6700
vn -0.4407 0.6818 -0.5839
vn -0.5247 0.6950 -0.4915
vn -0.5678 0.6977 -0.4368
vn -0.6280 0.6878 -0.3640
vn -0.6820 0.6878 -0.2484
vn -0.6993 0.6977 -0.1555
vn -0.5247 -0.6950 -0.4915
vn -0.5678 -0.6977 -0.4368
vn -0.6993 -0.6977 -0.1555
vn -0.6820 -0.6878 -0.2484
vn -0.6280 -0.6878 -0.3640
vn -0.4407 -0.6818 -0.5839
vn -0.2936 -0.6818 -0.6700
vn -0.1720 -0.6950 -0.6981
vn 0.2539 0.6700 0.6976
vn 0.2539 -0.6700 0.6976
vn -0.0096 0.6972 -0.7168
vn -0.1102 0.6866 -0.7186
vn -0.2424 0.6866 -0.6854
vn -0.3302 0.6971 -0.6364
vn -0.3941 0.6947 -0.6017
vn -0.5030 0.6809 -0.5323
vn -0.6159 0.6809 -0.3963
vn -0.6641 0.6947 -0.2765
vn -0.3302 -0.6971 -0.6364
vn -0.3941 -0.6947 -0.6017
vn -0.6641 -0.6947 -0.2765
vn -0.6159 -0.6809 -0.3963
vn -0.5030 -0.6809 -0.5323
vn -0.2424 -0.6866 -0.6854
vn -0.1102 -0.6866 -0.7186
vn -0.0096 -0.6972 -0.7168
vn -0.5792 0.5620 0.5905
vn -0.5792 -0.5620 0.5905
vn 0.3181 0.6950 -0.6448
vn 0.2067 0.6817 -0.7018
vn 0.0381 0.6818 -0.7306
vn -0.0859 0.6950 -0.7138
vn -0.5064 0.6106 -0.6088
vn -0.7047 0.6850 -0.1847
vn -0.0859 -0.6950 -0.7138
vn -0.5064 -0.6106 -0.6088
vn -0.7047 -0.6850 -0.1847
vn 0.0381 -0.6818 -0.7306
vn 0.2067 -0.6817 -0.7018
vn 0.3181 -0.6950 -0.6448
# 163 vertex normals

vt 0.0000 0.0000 0.0000
vt 0.2500 0.0000 0.0000
vt 0.2500 0.0556 0.0000
vt 0.0000 0.0556 0.0000
vt 0.5000 0.0000 0.0000
vt 0.5000 0.0134 0.0000
vt 0.5000 0.0349 0.0000
vt 0.5000 0.0395 0.0000
vt 0.5000 0.0438 0.0000
vt 0.5000 0.0478 0.0000
vt 0.5000 0.0556 0.0000
vt 0.7500 0.0134 0.0000
vt 0.7500 0.0349 0.0000
vt 0.7500 0.0000 0.0000
vt 1.0000 0.0000 0.0000
vt 1.0000 0.0556 0.0000
vt 0.7500 0.0556 0.0000
vt 0.7500 0.0478 0.0000
vt 0.7500 0.0438 0.0000
vt 0.7500 0.0395 0.0000
vt 0.2500 0.1111 0.0000
vt 0.0000 0.1111 0.0000
vt 0.5000 0.0630 0.0000
vt 0.5000 0.0671 0.0000
vt 0.5000 0.0716 0.0000
vt 0.5000 0.0763 0.0000
vt 0.5000 0.0904 0.0000
vt 0.5000 0.0951 0.0000
vt 0.5000 0.0993 0.0000
vt 0.5000 0.1032 0.0000
vt 0.5000 0.1111 0.0000
vt 0.7500 0.0763 0.0000
vt 0.7500 0.0904 0.0000
vt 1.0000 0.1111 0.0000
vt 0.7500 0.1111 0.0000
vt 0.7500 0.1032 0.0000
vt 0.7500 0.0993 0.0000
vt 0.7500 0.0951 0.0000
vt 0.7500 0.0716 0.0000
vt 0.7500 0.0671 0.0000
vt 0.7500 0.0630 0.0000
vt 0.2500 0.1667 0.0000
vt 0.0000 0.1667 0.0000
vt 0.5000 0.1190 0.0000
vt 0.5000 0.1229 0.0000
vt 0.5000 0.1272 0.0000
vt 0.5000 0.1318 0.0000
vt 0.5000 0.1460 0.0000
vt 0.5000 0.1506 0.0000
vt 0.5000 0.1550 0.0000
vt 0.5000 0.1590 0.0000
vt 0.5000 0.1667 0.0000
vt 0.7500 0.1318 0.0000
vt 0.7500 0.1460 0.0000
vt 1.0000 0.1667 0.0000
vt 0.7500 0.1667 0.0000
vt 0.7500 0.1590 0.0000
vt 0.7500 0.1550 0.0000
vt 0.7500 0.1506 0.0000
vt 0.7500 0.1272 0.0000
vt 0.7500 0.1229 0.0000
vt 0.7500 0.1190 0.0000
vt 0.2500 0.2222 0.0000
vt 0.0000 0.2222 0.0000
vt 0.5000 0.1747 0.0000
vt 0.5000 0.1785 0.0000
vt 0.5000 0.1827 0.0000
vt 0.5000 0.1874 0.0000
vt 0.5000 0.2015 0.0000
vt 0.5000 0.2062 0.0000
vt 0.5000 0.2106 0.0000
vt 0.5000 0.2146 0.0000
vt 0.5000 0.2222 0.0000
vt 0.7500 0.1874 0.0000
vt 0.7500 0.2015 0.0000
vt 1.0000 0.2222 0.0000
vt 0.7500 0.2222 0.0000
vt 0.7500 0.2146 0.0000
vt 0.7500 0.2106 0.0000
vt 0.7500 0.2062 0.0000
vt 0.7500 0.1827 0.0000
vt 0.7500 0.1785 0.0000
vt 0.7500 0.1747 0.0000
vt 0.2500 0.2778 0.0000
vt 0.0000 0.2778 0.0000
vt 0.5000 0.2302 0.0000
vt 0.5000 0.2340 0.0000
vt 0.5000 0.2383 0.0000
vt 0.5000 0.2429 0.0000
vt 0.5000 0.2571 0.0000
vt 0.5000 0.2618 0.0000
vt 0.5000 0.2661 0.0000
vt 0.5000 0.2702 0.0000
vt 0.5000 0.2778 0.0000
vt 0.7500 0.2429 0.0000
vt 0.7500 0.2571 0.0000
vt 1.0000 0.2778 0.0000
vt 0.7500 0.2778 0.0000
vt 0.7500 0.2702 0.0000
vt 0.7500 0.2661 0.0000
vt 0.7500 0.2618 0.0000
vt 0.7500 0.2383 0.0000
vt 0.7500 0.2340 0.0000
vt 0.7500 0.2302 0.0000
vt 0.2500 0.3333 0.0000
vt 0.0000 0.3333 0.0000
vt 0.5000 0.2859 0.0000
vt 0.5000 0.2896 0.0000
vt 0.5000 0.2938 0.0000
vt 0.5000 0.2985 0.0000
vt 0.5000 0.3126 0.0000
vt 0.5000 0.3172 0.0000
vt 0.5000 0.3213 0.0000
vt 0.5000 0.3248 0.0000
vt 0.5000 0.3333 0.0000
vt 0.7500 0.2985 0.0000
vt 0.7500 0.3126 0.0000
vt 1.0000 0.3333 0.0000
vt 0.7500 0.3333 0.0000
vt 0.7500 0.3248 0.0000
vt 0.7500 0.3213 0.0000
vt 0.7500 0.3172 0.0000
vt 0.7500 0.2938 0.0000
vt 0.7500 0.2896 0.0000
vt 0.7500 0.2859 0.0000
vt 0.2500 0.3889 0.0000
vt 0.0000 0.3889 0.0000
vt 0.5000 0.3414 0.0000
vt 0.5000 0.3452 0.0000
vt 0.5000 0.3494 0.0000
vt 0.5000 0.3540 0.0000
vt 0.5000 0.3682 0.0000
vt 0.5000 0.3728 0.0000
vt 0.5000 0.3771 0.0000
vt 0.5000 0.3809 0.0000
vt 0.5000 0.3889 0.0000
vt 0.7500 0.3540 0.0000
vt 0.7500 0.3682 0.0000
vt 1.0000 0.3889 0.0000
vt 0.7500 0.3889 0.0000
vt 0.7500 0.3809 0.0000
vt 0.7500 0.3771 0.0000
vt 0.7500 0.3728 0.0000
vt 0.7500 0.3494 0.0000
vt 0.7500 0.3452 0.0000
vt 0.7500 0.3414 0.0000
vt 0.2500 0.4444 0.0000
vt 0.0000 0.4444 0.0000
vt 0.5000 0.3966 0.0000
vt 0.5000 0.4006 0.0000
vt 0.5000 0.4049 0.0000
vt 0.5000 0.4096 0.0000
vt 0.5000 0.4237 0.0000
vt 0.5000 0.4283 0.0000
vt 0.5000 0.4323 0.0000
vt 0.5000 0.4358 0.0000
vt 0.5000 0.4444 0.0000
vt 0.7500 0.4096 0.0000
vt 0.7500 0.4237 0.0000
vt 1.0000 0.4444 0.0000
vt 0.7500 0.4444 0.0000
vt 0.7500 0.4358 0.0000
vt 0.7500 0.4323 0.0000
vt 0.7500 0.4283 0.0000
vt 0.7500 0.4049 0.0000
vt 0.7500 0.4006 0.0000
vt 0.7500 0.3966 0.0000
vt 0.2500 0.5000 0.0000
vt 0.0000 0.5000 0.0000
vt 0.5000 0.4532 0.0000
vt 0.5000 0.4566 0.0000
vt 0.5000 0.4606 0.0000
vt 0.5000 0.4651 0.0000
vt 0.5000 0.4866 0.0000
vt 0.5000 0.5000 0.0000
vt 0.7500 0.4651 0.0000
vt 0.7500 0.4866 0.0000
vt 1.0000 0.5000 0.0000
vt 0.7500 0.5000 0.0000
vt 0.7500 0.4606 0.0000
vt 0.7500 0.4566 0.0000
vt 0.7500 0.4532 0.0000
# 182 texture coords

o Tube001
g Tube001
usemtl wire_085028177
s 1
f 1/1/1 2/2/2 3/3/3 4/4/4 
s 2
f 2/2/2 5/5/5 6/6/6 7/7/7 8/8/8 9/9/9 10/10/10 11/11/11 11/11/12 3/3/3 
s 1
f 12/12/13 13/13/14 7/7/7 6/6/6 
s 2
f 14/14/15 1/15/1 4/16/4 15/17/12 15/17/16 16/18/17 17/19/18 18/20/19 13/13/14 12/12/13 
s 1
f 4/4/4 3/3/3 19/21/20 20/22/21 
s 2
f 3/3/3 11/11/12 11/11/22 21/23/23 22/24/24 23/25/25 24/26/26 25/27/27 26/28/28 27/29/29 28/30/30 29/31/31 19/21/20 
s 1
f 30/32/32 31/33/33 25/27/27 24/26/26 
s 2
f 15/17/12 4/16/4 20/34/21 32/35/34 33/36/35 34/37/36 35/38/37 31/33/33 30/32/32 36/39/38 37/40/39 38/41/40 15/17/41 
s 1
f 20/22/21 19/21/20 39/42/42 40/43/43 
s 2
f 19/21/20 29/31/31 41/44/44 42/45/45 43/46/46 44/47/47 45/48/48 46/49/49 47/50/50 48/51/51 49/52/31 39/42/42 
s 1
f 50/53/52 51/54/53 45/48/48 44/47/47 
s 2
f 32/35/34 20/34/21 40/55/43 52/56/34 53/57/54 54/58/55 55/59/56 51/54/53 50/53/52 56/60/57 57/61/58 58/62/59 
s 1
f 40/43/43 39/42/42 59/63/60 60/64/61 
s 2
f 39/42/42 49/52/31 61/65/62 62/66/63 63/67/64 64/68/65 65/69/66 66/70/67 67/71/68 68/72/69 69/73/31 59/63/60 
s 1
f 70/74/70 71/75/71 65/69/66 64/68/65 
s 2
f 52/56/34 40/55/43 60/76/61 72/77/34 73/78/72 74/79/73 75/80/74 71/75/71 70/74/70 76/81/75 77/82/76 78/83/77 
s 1
f 60/64/61 59/63/60 79/84/78 80/85/79 
s 2
f 59/63/60 69/73/31 81/86/80 82/87/81 83/88/82 84/89/83 85/90/84 86/91/85 87/92/86 88/93/87 89/94/31 79/84/78 
s 1
f 90/95/88 91/96/89 85/90/84 84/89/83 
s 2
f 72/77/34 60/76/61 80/97/79 92/98/34 93/99/90 94/100/91 95/101/92 91/96/89 90/95/88 96/102/93 97/103/94 98/104/95 
s 1
f 80/85/79 79/84/78 99/105/96 100/106/97 
s 2
f 79/84/78 89/94/31 101/107/98 102/108/99 103/109/100 104/110/101 105/111/102 106/112/103 107/113/104 108/114/105 109/115/31 99/105/96 
s 1
f 110/116/106 111/117/107 105/111/102 104/110/101 
s 2
f 92/98/34 80/97/79 100/118/97 112/119/34 113/120/108 114/121/109 115/122/110 111/117/107 110/116/106 116/123/111 117/124/112 118/125/113 
s 1
f 100/106/97 99/105/96 119/126/114 120/127/115 
s 2
f 99/105/96 109/115/31 121/128/116 122/129/117 123/130/118 124/131/119 125/132/120 126/133/121 127/134/122 128/135/123 129/136/31 119/126/114 
s 1
f 130/137/124 131/138/125 125/132/120 124/131/119 
s 2
f 112/119/34 100/118/97 120/139/115 132/140/34 133/141/126 134/142/127 135/143/128 131/138/125 130/137/124 136/144/129 137/145/130 138/146/131 
s 1
f 120/127/115 119/126/114 139/147/132 140/148/133 
s 2
f 119/126/114 129/136/31 141/149/134 142/150/135 143/151/136 144/152/137 145/153/138 146/154/139 147/155/140 148/156/141 149/157/31 139/147/132 
s 1
f 150/158/142 151/159/143 145/153/138 144/152/137 
s 2
f 132/140/34 120/139/115 140/160/133 152/161/34 153/162/144 154/163/145 155/164/146 151/159/143 150/158/142 156/165/147 157/166/148 158/167/149 
s 1
f 140/148/133 139/147/132 159/168/150 160/169/151 
s 2
f 139/147/132 149/157/31 161/170/152 162/171/153 163/172/154 164/173/155 165/174/156 166/175/157 159/168/150 
s 1
f 167/176/158 168/177/159 165/174/156 164/173/155 
s 2
f 152/161/34 140/160/133 160/178/151 169/179/160 168/177/159 167/176/158 170/180/161 171/181/162 172/182/163 
s 4
f 159/168/150 166/175/157 169/179/160 160/178/151 
f 1/1/1 14/14/15 5/5/5 2/2/2 
f 6/6/6 5/5/5 14/14/15 12/12/13 
f 168/177/159 169/179/160 166/175/157 165/174/156 
f 149/157/31 148/156/141 153/162/144 152/161/34 172/182/163 161/170/152 
f 15/17/41 38/41/40 21/23/23 11/11/22 
f 29/31/31 28/30/30 33/36/35 32/35/34 58/62/59 41/44/44 
f 49/52/31 48/51/51 53/57/54 52/56/34 78/83/77 61/65/62 
f 69/73/31 68/72/69 73/78/72 72/77/34 98/104/95 81/86/80 
f 89/94/31 88/93/87 93/99/90 92/98/34 118/125/113 101/107/98 
f 109/115/31 108/114/105 113/120/108 112/119/34 138/146/131 121/128/116 
f 129/136/31 128/135/123 133/141/126 132/140/34 158/167/149 141/149/134 
s 1
f 151/159/143 155/164/146 146/154/139 145/153/138 
f 164/173/155 163/172/154 170/180/161 167/176/158 
f 155/164/146 154/163/145 147/155/140 146/154/139 
f 154/163/145 153/162/144 148/156/141 147/155/140 
f 163/172/154 162/171/153 171/181/162 170/180/161 
f 162/171/153 161/170/152 172/182/163 171/181/162 
f 51/54/53 55/59/56 46/49/49 45/48/48 
f 44/47/47 43/46/46 56/60/57 50/53/52 
f 13/13/14 18/20/19 8/8/8 7/7/7 
f 31/33/33 35/38/37 26/28/28 25/27/27 
f 24/26/26 23/25/25 36/39/38 30/32/32 
f 71/75/71 75/80/74 66/70/67 65/69/66 
f 64/68/65 63/67/64 76/81/75 70/74/70 
f 91/96/89 95/101/92 86/91/85 85/90/84 
f 84/89/83 83/88/82 96/102/93 90/95/88 
f 111/117/107 115/122/110 106/112/103 105/111/102 
f 104/110/101 103/109/100 116/123/111 110/116/106 
f 131/138/125 135/143/128 126/133/121 125/132/120 
f 124/131/119 123/130/118 136/144/129 130/137/124 
f 144/152/137 143/151/136 156/165/147 150/158/142 
f 55/59/56 54/58/55 47/50/50 46/49/49 
f 54/58/55 53/57/54 48/51/51 47/50/50 
f 43/46/46 42/45/45 57/61/58 56/60/57 
f 42/45/45 41/44/44 58/62/59 57/61/58 
f 18/20/19 17/19/18 9/9/9 8/8/8 
f 17/19/18 16/18/17 10/10/10 9/9/9 
f 35/38/37 34/37/36 27/29/29 26/28/28 
f 34/37/36 33/36/35 28/30/30 27/29/29 
f 23/25/25 22/24/24 37/40/39 36/39/38 
f 22/24/24 21/23/23 38/41/40 37/40/39 
f 75/80/74 74/79/73 67/71/68 66/70/67 
f 74/79/73 73/78/72 68/72/69 67/71/68 
f 63/67/64 62/66/63 77/82/76 76/81/75 
f 62/66/63 61/65/62 78/83/77 77/82/76 
f 95/101/92 94/100/91 87/92/86 86/91/85 
f 94/100/91 93/99/90 88/93/87 87/92/86 
f 83/88/82 82/87/81 97/103/94 96/102/93 
f 82/87/81 81/86/80 98/104/95 97/103/94 
f 115/122/110 114/121/109 107/113/104 106/112/103 
f 114/121/109 113/120/108 108/114/105 107/113/104 
f 103/109/100 102/108/99 117/124/112 116/123/111 
f 102/108/99 101/107/98 118/125/113 117/124/112 
f 135/143/128 134/142/127 127/134/122 126/133/121 
f 134/142/127 133/141/126 128/135/123 127/134/122 
f 123/130/118 122/129/117 137/145/130 136/144/129 
f 122/129/117 121/128/116 138/146/131 137/145/130 
f 143/151/136 142/150/135 157/166/148 156/165/147 
f 142/150/135 141/149/134 158/167/149 157/166/148 
s 4
f 11/11/11 10/10/10 16/18/17 15/17/16 
s off
f 11/11/11 11/11/12 11/11/12 
f 15/17/12 15/17/12 15/17/16 
f 11/11/12 11/11/12 11/11/22 
f 15/17/41 15/17/12 15/17/12 
f 11/11/22 11/11/12 15/17/12 15/17/41 
f 15/17/16 15/17/12 11/11/12 11/11/11 
# 99 polygons - 4 triangles

