# 3ds Max Wavefront OBJ Exporter v0.97b - (c)2007 guruware
# File Created: 10.04.2018 17:21:31

mtllib Bar_Circulaire_COMPLETE.mtl

#
# object Box001
#

v  -14.7845 0.0000 16.8327
v  -14.7845 0.0000 10.3327
v  35.2155 0.0000 10.3327
v  35.2155 0.0000 16.8327
v  -14.7845 15.0000 16.8327
v  35.2155 15.0000 16.8327
v  35.2155 15.0000 10.3327
v  -14.7845 15.0000 10.3327
# 8 vertices

vn -0.5774 -0.5774 0.5774
vn -0.5774 -0.5774 -0.5774
vn 0.5774 -0.5774 -0.5774
vn 0.5774 -0.5774 0.5774
vn -0.5774 0.5774 0.5774
vn 0.5774 0.5774 0.5774
vn 0.5774 0.5774 -0.5774
vn -0.5774 0.5774 -0.5774
# 8 vertex normals

vt 1.0000 0.0000 0.0000
vt 1.0000 1.0000 0.0000
vt 0.0000 1.0000 0.0000
vt 0.0000 0.0000 0.0000
# 4 texture coords

o Box001
g Box001
usemtl wire_154215229
s 2
f 1/1/1 2/2/2 3/3/3 4/4/4 
s 4
f 5/4/5 6/1/6 7/2/7 8/3/8 
s 8
f 1/4/1 4/1/4 6/2/6 5/3/5 
s 16
f 4/4/4 3/1/3 7/2/7 6/3/6 
s 32
f 3/4/3 2/1/2 8/2/8 7/3/7 
s 64
f 2/4/2 1/1/1 5/2/5 8/3/8 
# 6 polygons

#
# object Box002
#

v  -14.7823 0.0000 -7.6713
v  -14.7823 0.0000 -14.1713
v  20.2177 0.0000 -14.1713
v  20.2177 0.0000 -7.6713
v  -14.7823 15.0000 -7.6713
v  20.2177 15.0000 -7.6713
v  20.2177 15.0000 -14.1713
v  -14.7823 15.0000 -14.1713
# 8 vertices

vn -0.5774 -0.5774 0.5774
vn -0.5774 -0.5774 -0.5774
vn 0.5774 -0.5774 -0.5774
vn 0.5774 -0.5774 0.5774
vn -0.5774 0.5774 0.5774
vn 0.5774 0.5774 0.5774
vn 0.5774 0.5774 -0.5774
vn -0.5774 0.5774 -0.5774
# 8 vertex normals

vt 1.0000 0.0000 0.0000
vt 1.0000 1.0000 0.0000
vt 0.0000 1.0000 0.0000
vt 0.0000 0.0000 0.0000
# 4 texture coords

o Box002
g Box002
usemtl wire_154215229
s 2
f 9/5/9 10/6/10 11/7/11 12/8/12 
s 4
f 13/8/13 14/5/14 15/6/15 16/7/16 
s 8
f 9/8/9 12/5/12 14/6/14 13/7/13 
s 16
f 12/8/12 11/5/11 15/6/15 14/7/14 
s 32
f 11/8/11 10/5/10 16/6/16 15/7/15 
s 64
f 10/8/10 9/5/9 13/6/13 16/7/16 
# 6 polygons

#
# object Box003
#

v  -8.2836 0.0000 10.3313
v  -14.7836 0.0000 10.3313
v  -14.7836 0.0000 -7.6687
v  -8.2836 0.0000 -7.6687
v  -8.2836 15.0000 10.3313
v  -8.2836 15.0000 -7.6687
v  -14.7836 15.0000 -7.6687
v  -14.7836 15.0000 10.3313
# 8 vertices

vn 0.5774 -0.5774 0.5774
vn -0.5774 -0.5774 0.5774
vn -0.5774 -0.5774 -0.5774
vn 0.5774 -0.5774 -0.5774
vn 0.5774 0.5774 0.5774
vn 0.5774 0.5774 -0.5774
vn -0.5774 0.5774 -0.5774
vn -0.5774 0.5774 0.5774
# 8 vertex normals

vt 1.0000 0.0000 0.0000
vt 1.0000 1.0000 0.0000
vt 0.0000 1.0000 0.0000
vt 0.0000 0.0000 0.0000
# 4 texture coords

o Box003
g Box003
usemtl wire_154215229
s 2
f 17/9/17 18/10/18 19/11/19 20/12/20 
s 4
f 21/12/21 22/9/22 23/10/23 24/11/24 
s 8
f 17/12/17 20/9/20 22/10/22 21/11/21 
s 16
f 20/12/20 19/9/19 23/10/23 22/11/22 
s 32
f 19/12/19 18/9/18 24/10/24 23/11/23 
s 64
f 18/12/18 17/9/17 21/10/21 24/11/24 
# 6 polygons

#
# object Box004
#

v  35.2155 0.0000 10.3144
v  28.7155 0.0000 10.3144
v  28.7155 0.0000 -14.1856
v  35.2155 0.0000 -14.1856
v  35.2155 15.0000 10.3144
v  35.2155 15.0000 -14.1856
v  28.7155 15.0000 -14.1856
v  28.7155 15.0000 10.3144
# 8 vertices

vn 0.5774 -0.5774 0.5774
vn -0.5774 -0.5774 0.5774
vn -0.5774 -0.5774 -0.5774
vn 0.5774 -0.5774 -0.5774
vn 0.5774 0.5774 0.5774
vn 0.5774 0.5774 -0.5774
vn -0.5774 0.5774 -0.5774
vn -0.5774 0.5774 0.5774
# 8 vertex normals

vt 1.0000 0.0000 0.0000
vt 1.0000 1.0000 0.0000
vt 0.0000 1.0000 0.0000
vt 0.0000 0.0000 0.0000
# 4 texture coords

o Box004
g Box004
usemtl wire_154215229
s 2
f 25/13/25 26/14/26 27/15/27 28/16/28 
s 4
f 29/16/29 30/13/30 31/14/31 32/15/32 
s 8
f 25/16/25 28/13/28 30/14/30 29/15/29 
s 16
f 28/16/28 27/13/27 31/14/31 30/15/30 
s 32
f 27/16/27 26/13/26 32/14/32 31/15/31 
s 64
f 26/16/26 25/13/25 29/14/29 32/15/32 
# 6 polygons

#
# object Box005
#

v  -14.8024 14.9986 17.9495
v  -15.8024 14.9986 16.9495
v  -15.8024 14.9986 9.9630
v  -8.8324 14.9986 9.9630
v  -7.8324 14.9986 10.9630
v  -7.8324 14.9986 17.9495
v  -6.8324 14.9986 9.9630
v  20.6306 14.9986 9.9630
v  20.6306 14.9986 17.9495
v  27.2798 14.9986 9.9630
v  28.2798 14.9986 10.9630
v  28.2798 14.9986 17.9495
v  29.2798 14.9986 9.9630
v  36.1976 14.9986 9.9630
v  36.1976 14.9986 16.9495
v  35.1976 14.9986 17.9495
v  -15.8024 14.9986 -7.0380
v  -8.8324 14.9986 -7.0380
v  -7.8324 14.9986 -6.0380
v  -7.8324 14.9986 8.9630
v  28.2798 14.9986 8.9630
v  28.2798 14.9986 -7.0380
v  36.1976 14.9986 -7.0380
v  -15.8024 14.9986 -14.0505
v  -14.8024 14.9986 -15.0505
v  -7.8324 14.9986 -15.0505
v  -7.8324 14.9986 -8.0380
v  -6.8324 14.9986 -7.0380
v  19.6306 14.9986 -15.0505
v  20.6306 14.9986 -14.0505
v  20.6306 14.9986 -8.0380
v  19.6306 14.9986 -7.0380
v  28.2798 14.9986 -14.0505
v  29.2798 14.9986 -15.0505
v  35.1976 14.9986 -15.0505
v  36.1976 14.9986 -14.0505
v  -15.8024 15.9986 16.9495
v  -14.8024 15.9986 17.9495
v  -7.8324 15.9986 17.9495
v  -7.8324 15.9986 10.9630
v  -8.8324 15.9986 9.9630
v  -15.8024 15.9986 9.9630
v  20.6306 15.9986 17.9495
v  20.6306 15.9986 9.9630
v  -6.8324 15.9986 9.9630
v  28.2798 15.9986 17.9495
v  28.2798 15.9986 10.9630
v  27.2798 15.9986 9.9630
v  35.1976 15.9986 17.9495
v  36.1976 15.9986 16.9495
v  36.1976 15.9986 9.9630
v  29.2798 15.9986 9.9630
v  -7.8324 15.9986 8.9630
v  -7.8324 15.9986 -6.0380
v  -8.8324 15.9986 -7.0380
v  -15.8024 15.9986 -7.0380
v  28.2798 15.9986 8.9630
v  36.1976 15.9986 -7.0380
v  28.2798 15.9986 -7.0380
v  -7.8324 15.9986 -8.0380
v  -7.8324 15.9986 -15.0505
v  -14.8024 15.9986 -15.0505
v  -15.8024 15.9986 -14.0505
v  -6.8324 15.9986 -7.0380
v  19.6306 15.9986 -7.0380
v  20.6306 15.9986 -8.0380
v  20.6306 15.9986 -14.0505
v  19.6306 15.9986 -15.0505
v  36.1976 15.9986 -14.0505
v  35.1976 15.9986 -15.0505
v  29.2798 15.9986 -15.0505
v  28.2798 15.9986 -14.0505
# 72 vertices

vn -0.2971 -0.6303 0.7173
vn -0.7173 -0.6303 0.2971
vn -0.7071 -0.7071 -0.0000
vn 0.0000 -1.0000 -0.0000
vn 0.0000 -0.7071 0.7071
vn 0.2274 -0.8042 -0.5491
vn 0.0000 -0.7071 -0.7071
vn -0.2274 -0.8042 -0.5491
vn 0.7071 -0.7071 -0.0000
vn 0.7173 -0.6303 0.2971
vn 0.2971 -0.6303 0.7173
vn 0.5491 -0.8042 0.2274
vn 0.5491 -0.8042 -0.2274
vn -0.5491 -0.8042 -0.2274
vn -0.7071 -0.7071 0.0000
vn -0.7173 -0.6303 -0.2971
vn -0.2971 -0.6303 -0.7173
vn 0.2274 -0.8042 0.5491
vn 0.2971 -0.6303 -0.7173
vn 0.7173 -0.6303 -0.2971
vn -0.7173 0.6303 0.2971
vn -0.2971 0.6303 0.7173
vn 0.0000 0.7071 0.7071
vn 0.0000 1.0000 -0.0000
vn -0.7071 0.7071 -0.0000
vn 0.0000 0.7071 -0.7071
vn 0.2274 0.8042 -0.5491
vn -0.2274 0.8042 -0.5491
vn 0.2971 0.6303 0.7173
vn 0.7173 0.6303 0.2971
vn 0.7071 0.7071 -0.0000
vn 0.5491 0.8042 -0.2274
vn 0.5491 0.8042 0.2274
vn -0.5491 0.8042 -0.2274
vn -0.7071 0.7071 0.0000
vn -0.2971 0.6303 -0.7173
vn -0.7173 0.6303 -0.2971
vn 0.2274 0.8042 0.5491
vn 0.7173 0.6303 -0.2971
vn 0.2971 0.6303 -0.7173
# 40 vertex normals

vt 0.9686 0.0000 0.0000
vt 1.0000 0.0417 0.0000
vt 1.0000 0.3333 0.0000
vt 0.7814 0.3333 0.0000
vt 0.7500 0.2916 0.0000
vt 0.7500 0.0000 0.0000
vt 0.7412 0.3333 0.0000
vt 0.5000 0.3333 0.0000
vt 0.5000 0.0000 0.0000
vt 0.2827 0.3333 0.0000
vt 0.2500 0.2916 0.0000
vt 0.2500 0.0000 0.0000
vt 0.2184 0.3333 0.0000
vt 0.0000 0.3333 0.0000
vt 0.0000 0.0417 0.0000
vt 0.0316 0.0000 0.0000
vt 1.0000 0.6667 0.0000
vt 0.7814 0.6667 0.0000
vt 0.7500 0.6471 0.0000
vt 0.7500 0.3529 0.0000
vt 0.2500 0.3529 0.0000
vt 0.2500 0.6667 0.0000
vt 0.0000 0.6667 0.0000
vt 1.0000 0.9584 0.0000
vt 0.9686 1.0000 0.0000
vt 0.7500 1.0000 0.0000
vt 0.7500 0.7083 0.0000
vt 0.7412 0.6667 0.0000
vt 0.5088 1.0000 0.0000
vt 0.5000 0.9584 0.0000
vt 0.5000 0.7083 0.0000
vt 0.5088 0.6667 0.0000
vt 0.2500 0.9584 0.0000
vt 0.2184 1.0000 0.0000
vt 0.0316 1.0000 0.0000
vt 0.0000 0.9584 0.0000
vt 0.0314 0.0000 0.0000
vt 0.2186 0.3333 0.0000
vt 0.2588 0.3333 0.0000
vt 0.7173 0.3333 0.0000
vt 0.9684 0.0000 0.0000
vt 0.7816 0.3333 0.0000
vt 0.2500 0.6471 0.0000
vt 0.2186 0.6667 0.0000
vt 0.7500 0.6667 0.0000
vt 0.2500 0.7083 0.0000
vt 0.2500 1.0000 0.0000
vt 0.0314 1.0000 0.0000
vt 0.2588 0.6667 0.0000
vt 0.4912 0.6667 0.0000
vt 0.4912 1.0000 0.0000
vt 0.9684 1.0000 0.0000
vt 0.7816 1.0000 0.0000
vt 0.7500 0.9584 0.0000
vt 0.5000 1.0000 0.0000
vt 0.0417 0.0000 0.0000
vt 0.3333 0.0000 0.0000
vt 0.3333 1.0000 0.0000
vt 0.0417 1.0000 0.0000
vt 0.6667 0.0000 0.0000
vt 0.6667 1.0000 0.0000
vt 0.9584 0.0000 0.0000
vt 0.9584 1.0000 0.0000
vt 0.2184 0.0000 0.0000
vt 0.5088 0.0000 0.0000
vt 0.0416 0.0000 0.0000
vt 0.0416 1.0000 0.0000
vt 0.9583 0.0000 0.0000
vt 0.9583 1.0000 0.0000
vt 2.3738 1.0000 0.0000
vt 2.3738 -0.0000 0.0000
vt -1.3783 -0.0000 0.0000
vt -1.3783 1.0000 0.0000
vt -1.3747 -0.0000 0.0000
vt -1.3747 1.0000 0.0000
vt -1.3762 0.0000 0.0000
vt -1.3762 1.0000 0.0000
# 77 texture coords

o Box005
g Box005
usemtl wire_154215229
s 1
f 33/17/33 34/18/34 35/19/35 36/20/36 37/21/36 38/22/37 
f 38/22/37 37/21/36 39/23/38 40/24/39 41/25/37 
f 41/25/37 40/24/39 42/26/40 43/27/36 44/28/37 
f 44/28/37 43/27/36 45/29/36 46/30/41 47/31/42 48/32/43 
f 35/19/35 49/33/35 50/34/36 51/35/44 52/36/45 36/20/36 
f 45/29/36 53/37/46 54/38/47 55/39/41 46/30/41 
f 49/33/35 56/40/48 57/41/49 58/42/39 59/43/36 50/34/36 
f 60/44/50 59/43/36 58/42/39 61/45/51 62/46/52 63/47/42 64/48/43 
f 54/38/47 65/49/48 66/50/49 67/51/51 68/52/52 55/39/41 
f 69/31/53 70/53/54 71/28/55 72/27/56 73/54/56 74/30/57 
f 71/28/55 75/25/55 76/24/58 77/55/59 72/27/56 
f 75/25/55 78/22/55 79/21/56 80/56/60 76/24/58 
f 78/22/55 81/57/61 82/18/62 83/19/63 84/58/56 79/21/56 
f 74/30/57 73/54/56 85/37/64 86/59/65 87/60/56 88/39/57 
f 89/36/66 84/58/56 83/19/63 90/33/63 91/61/67 
f 88/39/57 87/60/56 92/62/56 93/63/58 94/64/68 95/52/69 
f 92/62/56 96/65/70 97/66/61 98/47/62 99/46/71 100/67/72 93/63/58 
f 91/61/67 90/33/63 101/40/71 102/68/72 103/69/68 104/70/69 
s 2
f 33/53/33 38/28/37 71/63/55 70/64/54 
f 38/28/37 41/25/37 75/71/55 71/63/55 
f 41/25/37 44/22/37 78/42/55 75/71/55 
f 44/22/37 48/57/43 81/68/61 78/42/55 
f 47/72/42 46/73/41 83/74/63 82/75/62 
f 46/73/41 55/76/41 90/77/63 83/74/63 
f 55/76/41 68/78/52 101/79/71 90/77/63 
f 67/32/51 66/80/49 103/50/68 102/51/72 
f 61/81/51 58/22/39 93/42/58 100/45/72 
f 58/22/39 57/17/49 94/41/68 93/42/58 
f 56/82/48 49/73/35 88/74/57 95/83/69 
f 49/73/35 35/76/35 74/77/57 88/74/57 
f 35/76/35 34/84/34 69/85/53 74/77/57 
f 86/59/65 85/37/64 52/36/45 51/35/44 
f 97/66/61 96/65/70 60/44/50 64/48/43 
f 99/46/71 98/47/62 63/47/42 62/46/52 
f 91/61/67 104/70/69 65/49/48 54/38/47 
f 89/36/66 91/61/67 54/38/47 53/37/46 
f 76/24/58 80/56/60 42/26/40 40/24/39 
f 77/55/59 76/24/58 40/24/39 39/23/38 
s 1
f 37/21/36 36/20/36 52/36/45 39/23/38 
f 43/27/36 42/26/40 53/37/46 45/29/36 
f 51/35/44 50/34/36 59/43/36 60/44/50 
f 85/37/64 73/54/56 72/27/56 77/55/59 
f 80/56/60 79/21/56 84/58/56 89/36/66 
f 96/65/70 92/62/56 87/60/56 86/59/65 
s 4
f 70/86/54 69/85/53 34/84/34 33/87/33 
f 48/88/43 47/72/42 82/75/62 81/89/61 
f 68/90/52 67/32/51 102/51/72 101/91/71 
f 66/50/49 65/49/48 104/70/69 103/69/68 
f 100/67/72 99/46/71 62/46/52 61/45/51 
f 57/92/49 56/82/48 95/83/69 94/93/68 
f 85/37/64 77/55/59 39/23/38 52/36/45 
f 51/35/44 60/44/50 96/65/70 86/59/65 
f 64/48/43 63/47/42 98/47/62 97/66/61 
f 53/37/46 42/26/40 80/56/60 89/36/66 
# 54 polygons

