# 3ds Max Wavefront OBJ Exporter v0.97b - (c)2007 guruware
# File Created: 10.04.2018 10:56:50

mtllib Base Enceinte Concert.mtl

#
# object Box001
#

v  -20.0000 -30.0000 -15.0000
v  20.0000 -30.0000 -7.9236
v  20.0000 -30.0000 7.9236
v  -20.0000 -30.0000 15.0000
v  20.0000 30.0000 7.9236
v  20.0000 30.0000 -7.9236
v  -20.0000 30.0000 -15.0000
v  -20.0000 30.0000 15.0000
v  -2.8679 19.2946 3.6140
v  -2.8679 23.5186 3.6140
v  -2.8679 23.5186 -3.6140
v  -2.8679 19.2946 -3.6140
v  -20.0000 -29.1001 14.1001
v  -20.0000 -29.1001 -14.1001
v  -20.0000 29.1001 14.1001
v  -20.0000 29.1001 -14.1001
v  -20.0000 -29.0768 13.6105
v  -20.0000 -29.0768 -13.6105
v  -20.0000 29.0768 13.6105
v  -20.0000 29.0768 -13.6105
v  -18.5000 -29.0768 13.6105
v  -18.5000 -29.0768 -13.6105
v  -18.5000 29.0768 13.6105
v  -18.5000 26.9213 13.6105
v  -18.5000 15.8918 13.6105
v  -18.5000 29.0768 -13.6105
v  -18.5000 15.8918 -13.6105
v  -18.5000 26.9213 -13.6105
v  -18.5000 26.9213 -9.4366
v  -18.5000 26.9213 9.4366
v  -18.5000 15.8918 9.4366
v  -18.5000 15.8918 -9.4366
v  -18.5000 16.3422 -9.4366
v  -18.5000 26.4710 -9.4366
v  -18.5000 26.4710 9.4366
v  -18.5000 16.3422 9.4366
v  -18.5000 16.3422 8.6660
v  -18.5000 16.3422 -8.6660
v  -18.5000 26.4710 -8.6660
v  -18.5000 26.4710 8.6660
# 40 vertices

vn -0.5286 -0.5687 -0.6302
vn 0.6203 -0.5872 -0.5201
vn 0.6203 -0.5872 0.5201
vn -0.5286 -0.5687 0.6302
vn 0.6203 0.5872 0.5201
vn 0.6203 0.5872 -0.5201
vn -0.5286 0.5687 -0.6302
vn -0.5286 0.5687 0.6302
vn -0.7031 0.5281 -0.4761
vn -0.7031 -0.5281 -0.4761
vn -0.7031 -0.5281 0.4761
vn -0.7031 0.5281 0.4761
vn -1.0000 0.0000 -0.0000
vn -0.9045 0.3015 -0.3015
vn -0.9045 0.3015 0.3015
vn -0.9045 -0.3015 -0.3015
vn -0.9045 -0.3015 0.3015
vn -0.5774 0.5774 -0.5774
vn -0.5774 0.5774 0.5774
vn -0.5774 -0.5774 -0.5774
vn -0.7071 0.0000 -0.7071
vn -0.5774 -0.5774 0.5774
vn -0.7071 0.0000 0.7071
vn -0.9474 0.2188 -0.2336
vn -0.9474 0.2188 0.2336
vn -0.9474 -0.2188 0.2336
vn -0.9474 -0.2188 -0.2336
# 27 vertex normals

vt 1.0000 1.0000 0.0000
vt 0.0000 1.0000 0.0000
vt 0.0000 0.0000 0.0000
vt 1.0000 0.0000 0.0000
vt 0.8184 0.3469 0.0000
vt 0.8184 0.6531 0.0000
vt 0.1816 0.6531 0.0000
vt 0.1816 0.3469 0.0000
vt 1.0000 0.6667 0.0000
vt 1.0000 0.3333 0.0000
vt 0.0000 0.3333 0.0000
vt 0.0000 0.6667 0.0000
vt 0.1533 0.6667 0.0000
vt 0.8467 0.6667 0.0000
vt 0.8467 0.3333 0.0000
vt 0.1533 0.3333 0.0000
vt 0.1533 0.3469 0.0000
vt 0.1533 0.6531 0.0000
vt 0.8467 0.6531 0.0000
vt 0.8467 0.3469 0.0000
# 20 texture coords

o Box001
g Box001
usemtl Base_Enceinte_Concert_wire_177028149
s 2
f 1/1/1 2/2/2 3/3/3 4/4/4 
s 4
f 5/4/5 6/1/6 7/2/7 8/3/8 
s 8
f 3/4/3 5/1/5 8/2/8 4/3/4 
s 16
f 2/4/2 6/1/6 5/2/5 3/3/3 
s 32
f 1/4/1 7/1/7 6/2/6 2/3/2 
s 64
f 9/5/9 10/6/10 11/7/11 12/8/12 
s off
f 4/4/4 13/4/13 14/3/13 1/3/1 
f 8/1/8 15/1/13 13/4/13 4/4/4 
f 7/2/7 16/2/13 15/1/13 8/1/8 
f 1/3/1 14/3/13 16/2/13 7/2/7 
f 13/4/13 17/4/14 18/3/15 14/3/13 
f 15/1/13 19/1/16 17/4/14 13/4/13 
f 16/2/13 20/2/17 19/1/16 15/1/13 
f 14/3/13 18/3/15 20/2/17 16/2/13 
f 17/4/14 21/4/18 22/3/19 18/3/15 
f 17/4/14 19/1/16 23/1/20 24/9/21 
f 17/4/14 24/9/21 25/10/21 21/4/18 
f 20/2/17 26/2/22 23/1/20 19/1/16 
f 20/2/17 18/3/15 22/3/19 27/11/23 
f 20/2/17 27/11/23 28/12/23 26/2/22 
s 64
f 23/1/20 26/2/22 28/12/23 29/13/13 
f 23/1/20 29/13/13 30/14/13 24/9/21 
f 22/3/19 21/4/18 25/10/21 31/15/13 
f 22/3/19 31/15/13 32/16/13 27/11/23 
f 28/12/23 27/11/23 32/16/13 33/17/13 
f 28/12/23 33/17/13 34/18/13 29/13/13 
f 25/10/21 24/9/21 30/14/13 35/19/13 
f 25/10/21 35/19/13 36/20/13 31/15/13 
f 32/16/13 31/15/13 36/20/13 37/5/24 
f 32/16/13 37/5/24 38/8/25 33/17/13 
f 30/14/13 29/13/13 34/18/13 39/7/26 
f 30/14/13 39/7/26 40/6/27 35/19/13 
f 36/20/13 35/19/13 40/6/27 37/5/24 
f 34/18/13 33/17/13 38/8/25 39/7/26 
s off
f 37/5/24 9/5/9 12/8/12 38/8/25 
f 40/6/27 10/6/10 9/5/9 37/5/24 
f 39/7/26 11/7/11 10/6/10 40/6/27 
f 38/8/25 12/8/12 11/7/11 39/7/26 
# 38 polygons

